<svg xmlns="http://www.w3.org/2000/svg" xmlns:xlink="http://www.w3.org/1999/xlink" width="80" zoomAndPan="magnify" viewBox="0 0 60 60" height="80" preserveAspectRatio="xMidYMid meet" version="1.0"><defs><filter x="0%" y="0%" width="100%" height="100%" id="4209c0abbf"><feColorMatrix values="0 0 0 0 1 0 0 0 0 1 0 0 0 0 1 0 0 0 1 0" color-interpolation-filters="sRGB"/></filter><mask id="0ef0b9e604"><g filter="url(#4209c0abbf)"><rect x="-6" width="72" fill="#000000" y="-6" height="72" fill-opacity="0.17"/></g></mask><clipPath id="5600e44ed7"><path d="M 10 20 L 32 20 L 32 46 L 10 46 Z M 10 20 " clip-rule="nonzero"/></clipPath><clipPath id="affe6ec360"><path d="M 27.019531 -4.8125 L 60.074219 23.46875 L 26.914062 62.21875 L -6.136719 33.9375 Z M 27.019531 -4.8125 " clip-rule="nonzero"/></clipPath><clipPath id="cbe9c59f3e"><path d="M 27.019531 -4.8125 L 60.074219 23.46875 L 26.914062 62.21875 L -6.136719 33.9375 Z M 27.019531 -4.8125 " clip-rule="nonzero"/></clipPath><clipPath id="f70730a49c"><path d="M 27.019531 -4.8125 L 60.074219 23.46875 L 26.914062 62.21875 L -6.136719 33.9375 Z M 27.019531 -4.8125 " clip-rule="nonzero"/></clipPath><clipPath id="039a7248be"><path d="M 11 9 L 52 9 L 52 25 L 11 25 Z M 11 9 " clip-rule="nonzero"/></clipPath><clipPath id="f7b34b00b5"><path d="M 27.019531 -4.8125 L 60.074219 23.46875 L 26.914062 62.21875 L -6.136719 33.9375 Z M 27.019531 -4.8125 " clip-rule="nonzero"/></clipPath><clipPath id="7a63fb4816"><path d="M 27.019531 -4.8125 L 60.074219 23.46875 L 26.914062 62.21875 L -6.136719 33.9375 Z M 27.019531 -4.8125 " clip-rule="nonzero"/></clipPath><clipPath id="7dbda9e7ef"><path d="M 27.019531 -4.8125 L 60.074219 23.46875 L 26.914062 62.21875 L -6.136719 33.9375 Z M 27.019531 -4.8125 " clip-rule="nonzero"/></clipPath><clipPath id="ccc72afe36"><path d="M 28 21 L 47 21 L 47 29 L 28 29 Z M 28 21 " clip-rule="nonzero"/></clipPath><clipPath id="839b10e1c1"><path d="M 27.019531 -4.8125 L 60.074219 23.46875 L 26.914062 62.21875 L -6.136719 33.9375 Z M 27.019531 -4.8125 " clip-rule="nonzero"/></clipPath><clipPath id="62c092a288"><path d="M 27.019531 -4.8125 L 60.074219 23.46875 L 26.914062 62.21875 L -6.136719 33.9375 Z M 27.019531 -4.8125 " clip-rule="nonzero"/></clipPath><clipPath id="fb1b24efa3"><path d="M 27.019531 -4.8125 L 60.074219 23.46875 L 26.914062 62.21875 L -6.136719 33.9375 Z M 27.019531 -4.8125 " clip-rule="nonzero"/></clipPath><clipPath id="93ce00fcdf"><path d="M 45 21 L 60 21 L 60 38 L 45 38 Z M 45 21 " clip-rule="nonzero"/></clipPath><clipPath id="a8b492435d"><path d="M 27.019531 -4.8125 L 60.074219 23.46875 L 26.914062 62.21875 L -6.136719 33.9375 Z M 27.019531 -4.8125 " clip-rule="nonzero"/></clipPath><clipPath id="06b24901ff"><path d="M 27.019531 -4.8125 L 60.074219 23.46875 L 26.914062 62.21875 L -6.136719 33.9375 Z M 27.019531 -4.8125 " clip-rule="nonzero"/></clipPath><clipPath id="3637cfb47e"><path d="M 27.019531 -4.8125 L 60.074219 23.46875 L 26.914062 62.21875 L -6.136719 33.9375 Z M 27.019531 -4.8125 " clip-rule="nonzero"/></clipPath><clipPath id="0c7a441532"><path d="M 48 29 L 50 29 L 50 32 L 48 32 Z M 48 29 " clip-rule="nonzero"/></clipPath><clipPath id="0d38f1b31f"><path d="M 27.019531 -4.8125 L 60.074219 23.46875 L 26.914062 62.21875 L -6.136719 33.9375 Z M 27.019531 -4.8125 " clip-rule="nonzero"/></clipPath><clipPath id="33cecfd783"><path d="M 27.019531 -4.8125 L 60.074219 23.46875 L 26.914062 62.21875 L -6.136719 33.9375 Z M 27.019531 -4.8125 " clip-rule="nonzero"/></clipPath><clipPath id="36e76e604f"><path d="M 27.019531 -4.8125 L 60.074219 23.46875 L 26.914062 62.21875 L -6.136719 33.9375 Z M 27.019531 -4.8125 " clip-rule="nonzero"/></clipPath><clipPath id="23cd73b22f"><path d="M 50 28 L 51 28 L 51 30 L 50 30 Z M 50 28 " clip-rule="nonzero"/></clipPath><clipPath id="880156196d"><path d="M 27.019531 -4.8125 L 60.074219 23.46875 L 26.914062 62.21875 L -6.136719 33.9375 Z M 27.019531 -4.8125 " clip-rule="nonzero"/></clipPath><clipPath id="4cf4045bc6"><path d="M 27.019531 -4.8125 L 60.074219 23.46875 L 26.914062 62.21875 L -6.136719 33.9375 Z M 27.019531 -4.8125 " clip-rule="nonzero"/></clipPath><clipPath id="7341376b97"><path d="M 27.019531 -4.8125 L 60.074219 23.46875 L 26.914062 62.21875 L -6.136719 33.9375 Z M 27.019531 -4.8125 " clip-rule="nonzero"/></clipPath><clipPath id="2455d28530"><path d="M 28 22 L 38 22 L 38 27 L 28 27 Z M 28 22 " clip-rule="nonzero"/></clipPath><clipPath id="88bd06e7df"><path d="M 27.019531 -4.8125 L 60.074219 23.46875 L 26.914062 62.21875 L -6.136719 33.9375 Z M 27.019531 -4.8125 " clip-rule="nonzero"/></clipPath><clipPath id="5ebe6db8b0"><path d="M 27.019531 -4.8125 L 60.074219 23.46875 L 26.914062 62.21875 L -6.136719 33.9375 Z M 27.019531 -4.8125 " clip-rule="nonzero"/></clipPath><clipPath id="2521febc9d"><path d="M 27.019531 -4.8125 L 60.074219 23.46875 L 26.914062 62.21875 L -6.136719 33.9375 Z M 27.019531 -4.8125 " clip-rule="nonzero"/></clipPath><clipPath id="c842b7c2be"><path d="M 16 41 L 28 41 L 28 45 L 16 45 Z M 16 41 " clip-rule="nonzero"/></clipPath><clipPath id="42dcf16751"><path d="M 27.019531 -4.8125 L 60.074219 23.46875 L 26.914062 62.21875 L -6.136719 33.9375 Z M 27.019531 -4.8125 " clip-rule="nonzero"/></clipPath><clipPath id="2df30ff348"><path d="M 27.019531 -4.8125 L 60.074219 23.46875 L 26.914062 62.21875 L -6.136719 33.9375 Z M 27.019531 -4.8125 " clip-rule="nonzero"/></clipPath><clipPath id="e0f015b6e4"><path d="M 27.019531 -4.8125 L 60.074219 23.46875 L 26.914062 62.21875 L -6.136719 33.9375 Z M 27.019531 -4.8125 " clip-rule="nonzero"/></clipPath><clipPath id="9ab5c5ef5c"><path d="M 15 34 L 20 34 L 20 38 L 15 38 Z M 15 34 " clip-rule="nonzero"/></clipPath><clipPath id="982232d2f3"><path d="M 27.019531 -4.8125 L 60.074219 23.46875 L 26.914062 62.21875 L -6.136719 33.9375 Z M 27.019531 -4.8125 " clip-rule="nonzero"/></clipPath><clipPath id="ec7ee78dec"><path d="M 27.019531 -4.8125 L 60.074219 23.46875 L 26.914062 62.21875 L -6.136719 33.9375 Z M 27.019531 -4.8125 " clip-rule="nonzero"/></clipPath><clipPath id="5dc3d6ea8a"><path d="M 27.019531 -4.8125 L 60.074219 23.46875 L 26.914062 62.21875 L -6.136719 33.9375 Z M 27.019531 -4.8125 " clip-rule="nonzero"/></clipPath><clipPath id="2451cbe871"><path d="M 16 34 L 18 34 L 18 37 L 16 37 Z M 16 34 " clip-rule="nonzero"/></clipPath><clipPath id="7df0d5c495"><path d="M 27.019531 -4.8125 L 60.074219 23.46875 L 26.914062 62.21875 L -6.136719 33.9375 Z M 27.019531 -4.8125 " clip-rule="nonzero"/></clipPath><clipPath id="73302addc5"><path d="M 27.019531 -4.8125 L 60.074219 23.46875 L 26.914062 62.21875 L -6.136719 33.9375 Z M 27.019531 -4.8125 " clip-rule="nonzero"/></clipPath><clipPath id="90b5780682"><path d="M 27.019531 -4.8125 L 60.074219 23.46875 L 26.914062 62.21875 L -6.136719 33.9375 Z M 27.019531 -4.8125 " clip-rule="nonzero"/></clipPath><clipPath id="833b06c836"><path d="M 18 42 L 20 42 L 20 45 L 18 45 Z M 18 42 " clip-rule="nonzero"/></clipPath><clipPath id="82d520fd41"><path d="M 27.019531 -4.8125 L 60.074219 23.46875 L 26.914062 62.21875 L -6.136719 33.9375 Z M 27.019531 -4.8125 " clip-rule="nonzero"/></clipPath><clipPath id="b6db945d88"><path d="M 27.019531 -4.8125 L 60.074219 23.46875 L 26.914062 62.21875 L -6.136719 33.9375 Z M 27.019531 -4.8125 " clip-rule="nonzero"/></clipPath><clipPath id="27cf38b368"><path d="M 27.019531 -4.8125 L 60.074219 23.46875 L 26.914062 62.21875 L -6.136719 33.9375 Z M 27.019531 -4.8125 " clip-rule="nonzero"/></clipPath><clipPath id="04ffe1345c"><path d="M 3 39 L 19 39 L 19 45 L 3 45 Z M 3 39 " clip-rule="nonzero"/></clipPath><clipPath id="12b4f614b1"><path d="M 27.019531 -4.8125 L 60.074219 23.46875 L 26.914062 62.21875 L -6.136719 33.9375 Z M 27.019531 -4.8125 " clip-rule="nonzero"/></clipPath><clipPath id="b3cb20bc9f"><path d="M 27.019531 -4.8125 L 60.074219 23.46875 L 26.914062 62.21875 L -6.136719 33.9375 Z M 27.019531 -4.8125 " clip-rule="nonzero"/></clipPath><clipPath id="46c5f3dca6"><path d="M 27.019531 -4.8125 L 60.074219 23.46875 L 26.914062 62.21875 L -6.136719 33.9375 Z M 27.019531 -4.8125 " clip-rule="nonzero"/></clipPath><clipPath id="a1dcfdf283"><path d="M 27 43 L 35 43 L 35 50 L 27 50 Z M 27 43 " clip-rule="nonzero"/></clipPath><clipPath id="1d0dbac4bc"><path d="M 27.019531 -4.8125 L 60.074219 23.46875 L 26.914062 62.21875 L -6.136719 33.9375 Z M 27.019531 -4.8125 " clip-rule="nonzero"/></clipPath><clipPath id="0632f8e790"><path d="M 27.019531 -4.8125 L 60.074219 23.46875 L 26.914062 62.21875 L -6.136719 33.9375 Z M 27.019531 -4.8125 " clip-rule="nonzero"/></clipPath><clipPath id="1c5f02f861"><path d="M 27.019531 -4.8125 L 60.074219 23.46875 L 26.914062 62.21875 L -6.136719 33.9375 Z M 27.019531 -4.8125 " clip-rule="nonzero"/></clipPath><clipPath id="26fc422588"><path d="M 0 23 L 13 23 L 13 32 L 0 32 Z M 0 23 " clip-rule="nonzero"/></clipPath><clipPath id="bcef7a3af6"><path d="M 27.019531 -4.8125 L 60.074219 23.46875 L 26.914062 62.21875 L -6.136719 33.9375 Z M 27.019531 -4.8125 " clip-rule="nonzero"/></clipPath><clipPath id="5ca387cb65"><path d="M 27.019531 -4.8125 L 60.074219 23.46875 L 26.914062 62.21875 L -6.136719 33.9375 Z M 27.019531 -4.8125 " clip-rule="nonzero"/></clipPath><clipPath id="99534bedb1"><path d="M 27.019531 -4.8125 L 60.074219 23.46875 L 26.914062 62.21875 L -6.136719 33.9375 Z M 27.019531 -4.8125 " clip-rule="nonzero"/></clipPath><clipPath id="eec5906c5d"><path d="M 12 29 L 13 29 L 13 30 L 12 30 Z M 12 29 " clip-rule="nonzero"/></clipPath><clipPath id="495f526f65"><path d="M 27.019531 -4.8125 L 60.074219 23.46875 L 26.914062 62.21875 L -6.136719 33.9375 Z M 27.019531 -4.8125 " clip-rule="nonzero"/></clipPath><clipPath id="ffc7528014"><path d="M 27.019531 -4.8125 L 60.074219 23.46875 L 26.914062 62.21875 L -6.136719 33.9375 Z M 27.019531 -4.8125 " clip-rule="nonzero"/></clipPath><clipPath id="84ee1afacc"><path d="M 27.019531 -4.8125 L 60.074219 23.46875 L 26.914062 62.21875 L -6.136719 33.9375 Z M 27.019531 -4.8125 " clip-rule="nonzero"/></clipPath><clipPath id="7daff09e40"><path d="M 10 27 L 16 27 L 16 32 L 10 32 Z M 10 27 " clip-rule="nonzero"/></clipPath><clipPath id="e2c8ec4d6b"><path d="M 27.019531 -4.8125 L 60.074219 23.46875 L 26.914062 62.21875 L -6.136719 33.9375 Z M 27.019531 -4.8125 " clip-rule="nonzero"/></clipPath><clipPath id="06700cf6ff"><path d="M 27.019531 -4.8125 L 60.074219 23.46875 L 26.914062 62.21875 L -6.136719 33.9375 Z M 27.019531 -4.8125 " clip-rule="nonzero"/></clipPath><clipPath id="1b8a8924d0"><path d="M 27.019531 -4.8125 L 60.074219 23.46875 L 26.914062 62.21875 L -6.136719 33.9375 Z M 27.019531 -4.8125 " clip-rule="nonzero"/></clipPath><clipPath id="d5d0ee5fb9"><path d="M 4 26 L 10 26 L 10 29 L 4 29 Z M 4 26 " clip-rule="nonzero"/></clipPath><clipPath id="ea0d1ba5cb"><path d="M 27.019531 -4.8125 L 60.074219 23.46875 L 26.914062 62.21875 L -6.136719 33.9375 Z M 27.019531 -4.8125 " clip-rule="nonzero"/></clipPath><clipPath id="b91e301694"><path d="M 27.019531 -4.8125 L 60.074219 23.46875 L 26.914062 62.21875 L -6.136719 33.9375 Z M 27.019531 -4.8125 " clip-rule="nonzero"/></clipPath><clipPath id="0818b4b5a7"><path d="M 27.019531 -4.8125 L 60.074219 23.46875 L 26.914062 62.21875 L -6.136719 33.9375 Z M 27.019531 -4.8125 " clip-rule="nonzero"/></clipPath><clipPath id="8ede9993ad"><path d="M 4 27 L 9 27 L 9 30 L 4 30 Z M 4 27 " clip-rule="nonzero"/></clipPath><clipPath id="ada41bfa41"><path d="M 27.019531 -4.8125 L 60.074219 23.46875 L 26.914062 62.21875 L -6.136719 33.9375 Z M 27.019531 -4.8125 " clip-rule="nonzero"/></clipPath><clipPath id="20fa77088c"><path d="M 27.019531 -4.8125 L 60.074219 23.46875 L 26.914062 62.21875 L -6.136719 33.9375 Z M 27.019531 -4.8125 " clip-rule="nonzero"/></clipPath><clipPath id="666ea6bb46"><path d="M 27.019531 -4.8125 L 60.074219 23.46875 L 26.914062 62.21875 L -6.136719 33.9375 Z M 27.019531 -4.8125 " clip-rule="nonzero"/></clipPath><clipPath id="20e398087a"><path d="M 3 28 L 8 28 L 8 30 L 3 30 Z M 3 28 " clip-rule="nonzero"/></clipPath><clipPath id="bc6633ca9b"><path d="M 27.019531 -4.8125 L 60.074219 23.46875 L 26.914062 62.21875 L -6.136719 33.9375 Z M 27.019531 -4.8125 " clip-rule="nonzero"/></clipPath><clipPath id="c2266722e5"><path d="M 27.019531 -4.8125 L 60.074219 23.46875 L 26.914062 62.21875 L -6.136719 33.9375 Z M 27.019531 -4.8125 " clip-rule="nonzero"/></clipPath><clipPath id="c7a1ee62b2"><path d="M 27.019531 -4.8125 L 60.074219 23.46875 L 26.914062 62.21875 L -6.136719 33.9375 Z M 27.019531 -4.8125 " clip-rule="nonzero"/></clipPath><clipPath id="cb3b9c746a"><path d="M 10 23 L 12 23 L 12 29 L 10 29 Z M 10 23 " clip-rule="nonzero"/></clipPath><clipPath id="1a5f928114"><path d="M 27.019531 -4.8125 L 60.074219 23.46875 L 26.914062 62.21875 L -6.136719 33.9375 Z M 27.019531 -4.8125 " clip-rule="nonzero"/></clipPath><clipPath id="3b4aaf0fb5"><path d="M 27.019531 -4.8125 L 60.074219 23.46875 L 26.914062 62.21875 L -6.136719 33.9375 Z M 27.019531 -4.8125 " clip-rule="nonzero"/></clipPath><clipPath id="0d923eea62"><path d="M 27.019531 -4.8125 L 60.074219 23.46875 L 26.914062 62.21875 L -6.136719 33.9375 Z M 27.019531 -4.8125 " clip-rule="nonzero"/></clipPath><clipPath id="ab03d72840"><path d="M 29 36 L 39 36 L 39 43 L 29 43 Z M 29 36 " clip-rule="nonzero"/></clipPath><clipPath id="47badc0c1d"><path d="M 27.019531 -4.8125 L 60.074219 23.46875 L 26.914062 62.21875 L -6.136719 33.9375 Z M 27.019531 -4.8125 " clip-rule="nonzero"/></clipPath><clipPath id="8a6ba554cc"><path d="M 27.019531 -4.8125 L 60.074219 23.46875 L 26.914062 62.21875 L -6.136719 33.9375 Z M 27.019531 -4.8125 " clip-rule="nonzero"/></clipPath><clipPath id="bfe1ec441f"><path d="M 27.019531 -4.8125 L 60.074219 23.46875 L 26.914062 62.21875 L -6.136719 33.9375 Z M 27.019531 -4.8125 " clip-rule="nonzero"/></clipPath><clipPath id="86c66887c6"><path d="M 30 37 L 36 37 L 36 40 L 30 40 Z M 30 37 " clip-rule="nonzero"/></clipPath><clipPath id="51a6788c9c"><path d="M 27.019531 -4.8125 L 60.074219 23.46875 L 26.914062 62.21875 L -6.136719 33.9375 Z M 27.019531 -4.8125 " clip-rule="nonzero"/></clipPath><clipPath id="73f3a34aee"><path d="M 27.019531 -4.8125 L 60.074219 23.46875 L 26.914062 62.21875 L -6.136719 33.9375 Z M 27.019531 -4.8125 " clip-rule="nonzero"/></clipPath><clipPath id="a47a317edd"><path d="M 27.019531 -4.8125 L 60.074219 23.46875 L 26.914062 62.21875 L -6.136719 33.9375 Z M 27.019531 -4.8125 " clip-rule="nonzero"/></clipPath><clipPath id="92b03aa042"><path d="M 29 38 L 34 38 L 34 41 L 29 41 Z M 29 38 " clip-rule="nonzero"/></clipPath><clipPath id="4340c91ca6"><path d="M 27.019531 -4.8125 L 60.074219 23.46875 L 26.914062 62.21875 L -6.136719 33.9375 Z M 27.019531 -4.8125 " clip-rule="nonzero"/></clipPath><clipPath id="cbbd5f1f06"><path d="M 27.019531 -4.8125 L 60.074219 23.46875 L 26.914062 62.21875 L -6.136719 33.9375 Z M 27.019531 -4.8125 " clip-rule="nonzero"/></clipPath><clipPath id="fcf648d471"><path d="M 27.019531 -4.8125 L 60.074219 23.46875 L 26.914062 62.21875 L -6.136719 33.9375 Z M 27.019531 -4.8125 " clip-rule="nonzero"/></clipPath><clipPath id="9968890e22"><path d="M 29 39 L 31 39 L 31 41 L 29 41 Z M 29 39 " clip-rule="nonzero"/></clipPath><clipPath id="fd50a91780"><path d="M 27.019531 -4.8125 L 60.074219 23.46875 L 26.914062 62.21875 L -6.136719 33.9375 Z M 27.019531 -4.8125 " clip-rule="nonzero"/></clipPath><clipPath id="56370cd569"><path d="M 27.019531 -4.8125 L 60.074219 23.46875 L 26.914062 62.21875 L -6.136719 33.9375 Z M 27.019531 -4.8125 " clip-rule="nonzero"/></clipPath><clipPath id="62827c0b73"><path d="M 27.019531 -4.8125 L 60.074219 23.46875 L 26.914062 62.21875 L -6.136719 33.9375 Z M 27.019531 -4.8125 " clip-rule="nonzero"/></clipPath><clipPath id="335d77e53c"><path d="M 18 35 L 20 35 L 20 38 L 18 38 Z M 18 35 " clip-rule="nonzero"/></clipPath><clipPath id="450fb49b05"><path d="M 27.019531 -4.8125 L 60.074219 23.46875 L 26.914062 62.21875 L -6.136719 33.9375 Z M 27.019531 -4.8125 " clip-rule="nonzero"/></clipPath><clipPath id="545cbce822"><path d="M 27.019531 -4.8125 L 60.074219 23.46875 L 26.914062 62.21875 L -6.136719 33.9375 Z M 27.019531 -4.8125 " clip-rule="nonzero"/></clipPath><clipPath id="a8690d0f4e"><path d="M 27.019531 -4.8125 L 60.074219 23.46875 L 26.914062 62.21875 L -6.136719 33.9375 Z M 27.019531 -4.8125 " clip-rule="nonzero"/></clipPath><clipPath id="f26fd7f4ab"><path d="M 19 35 L 20 35 L 20 38 L 19 38 Z M 19 35 " clip-rule="nonzero"/></clipPath><clipPath id="d5eeb57235"><path d="M 27.019531 -4.8125 L 60.074219 23.46875 L 26.914062 62.21875 L -6.136719 33.9375 Z M 27.019531 -4.8125 " clip-rule="nonzero"/></clipPath><clipPath id="99fbdc4883"><path d="M 27.019531 -4.8125 L 60.074219 23.46875 L 26.914062 62.21875 L -6.136719 33.9375 Z M 27.019531 -4.8125 " clip-rule="nonzero"/></clipPath><clipPath id="8580f82731"><path d="M 27.019531 -4.8125 L 60.074219 23.46875 L 26.914062 62.21875 L -6.136719 33.9375 Z M 27.019531 -4.8125 " clip-rule="nonzero"/></clipPath><clipPath id="6deab79fbe"><path d="M 15 34 L 16 34 L 16 37 L 15 37 Z M 15 34 " clip-rule="nonzero"/></clipPath><clipPath id="0edc7ee947"><path d="M 27.019531 -4.8125 L 60.074219 23.46875 L 26.914062 62.21875 L -6.136719 33.9375 Z M 27.019531 -4.8125 " clip-rule="nonzero"/></clipPath><clipPath id="58cee71285"><path d="M 27.019531 -4.8125 L 60.074219 23.46875 L 26.914062 62.21875 L -6.136719 33.9375 Z M 27.019531 -4.8125 " clip-rule="nonzero"/></clipPath><clipPath id="cf8d3277b9"><path d="M 27.019531 -4.8125 L 60.074219 23.46875 L 26.914062 62.21875 L -6.136719 33.9375 Z M 27.019531 -4.8125 " clip-rule="nonzero"/></clipPath><clipPath id="cac716fb2b"><path d="M 17 42 L 19 42 L 19 44 L 17 44 Z M 17 42 " clip-rule="nonzero"/></clipPath><clipPath id="1e87682bf4"><path d="M 27.019531 -4.8125 L 60.074219 23.46875 L 26.914062 62.21875 L -6.136719 33.9375 Z M 27.019531 -4.8125 " clip-rule="nonzero"/></clipPath><clipPath id="ff71da3f44"><path d="M 27.019531 -4.8125 L 60.074219 23.46875 L 26.914062 62.21875 L -6.136719 33.9375 Z M 27.019531 -4.8125 " clip-rule="nonzero"/></clipPath><clipPath id="d9561da5ed"><path d="M 27.019531 -4.8125 L 60.074219 23.46875 L 26.914062 62.21875 L -6.136719 33.9375 Z M 27.019531 -4.8125 " clip-rule="nonzero"/></clipPath><clipPath id="a171557d69"><path d="M 24 42 L 27 42 L 27 44 L 24 44 Z M 24 42 " clip-rule="nonzero"/></clipPath><clipPath id="0eb248b238"><path d="M 27.019531 -4.8125 L 60.074219 23.46875 L 26.914062 62.21875 L -6.136719 33.9375 Z M 27.019531 -4.8125 " clip-rule="nonzero"/></clipPath><clipPath id="5c8d335b65"><path d="M 27.019531 -4.8125 L 60.074219 23.46875 L 26.914062 62.21875 L -6.136719 33.9375 Z M 27.019531 -4.8125 " clip-rule="nonzero"/></clipPath><clipPath id="7be3bd903f"><path d="M 27.019531 -4.8125 L 60.074219 23.46875 L 26.914062 62.21875 L -6.136719 33.9375 Z M 27.019531 -4.8125 " clip-rule="nonzero"/></clipPath><clipPath id="444f0a3bfe"><path d="M 22 44 L 26 44 L 26 46 L 22 46 Z M 22 44 " clip-rule="nonzero"/></clipPath><clipPath id="cf5aebdb78"><path d="M 27.019531 -4.8125 L 60.074219 23.46875 L 26.914062 62.21875 L -6.136719 33.9375 Z M 27.019531 -4.8125 " clip-rule="nonzero"/></clipPath><clipPath id="c0cc8920af"><path d="M 27.019531 -4.8125 L 60.074219 23.46875 L 26.914062 62.21875 L -6.136719 33.9375 Z M 27.019531 -4.8125 " clip-rule="nonzero"/></clipPath><clipPath id="74680e0fae"><path d="M 27.019531 -4.8125 L 60.074219 23.46875 L 26.914062 62.21875 L -6.136719 33.9375 Z M 27.019531 -4.8125 " clip-rule="nonzero"/></clipPath><clipPath id="6b15a025b1"><path d="M 11 28 L 17 28 L 17 32 L 11 32 Z M 11 28 " clip-rule="nonzero"/></clipPath><clipPath id="bb9452a131"><path d="M 27.019531 -4.8125 L 60.074219 23.46875 L 26.914062 62.21875 L -6.136719 33.9375 Z M 27.019531 -4.8125 " clip-rule="nonzero"/></clipPath><clipPath id="1d97ac71ba"><path d="M 27.019531 -4.8125 L 60.074219 23.46875 L 26.914062 62.21875 L -6.136719 33.9375 Z M 27.019531 -4.8125 " clip-rule="nonzero"/></clipPath><clipPath id="e957b7f4f0"><path d="M 27.019531 -4.8125 L 60.074219 23.46875 L 26.914062 62.21875 L -6.136719 33.9375 Z M 27.019531 -4.8125 " clip-rule="nonzero"/></clipPath><clipPath id="8039415ca7"><path d="M 25 12 L 45 12 L 45 18 L 25 18 Z M 25 12 " clip-rule="nonzero"/></clipPath><clipPath id="e7f67609bc"><path d="M 27.019531 -4.8125 L 60.074219 23.46875 L 26.914062 62.21875 L -6.136719 33.9375 Z M 27.019531 -4.8125 " clip-rule="nonzero"/></clipPath><clipPath id="fff886408c"><path d="M 27.019531 -4.8125 L 60.074219 23.46875 L 26.914062 62.21875 L -6.136719 33.9375 Z M 27.019531 -4.8125 " clip-rule="nonzero"/></clipPath><clipPath id="1f2ec1a14e"><path d="M 27.019531 -4.8125 L 60.074219 23.46875 L 26.914062 62.21875 L -6.136719 33.9375 Z M 27.019531 -4.8125 " clip-rule="nonzero"/></clipPath><clipPath id="9b8de07268"><rect x="0" width="60" y="0" height="60"/></clipPath></defs><g mask="url(#0ef0b9e604)"><g transform="matrix(1, 0, 0, 1, 0, -0.000000000000001479)"><g clip-path="url(#9b8de07268)"><g clip-path="url(#5600e44ed7)"><g clip-path="url(#affe6ec360)"><g clip-path="url(#cbe9c59f3e)"><g clip-path="url(#f70730a49c)"><path fill="#000000" d="M 31.507812 20.167969 C 29.574219 20.191406 28.324219 22.277344 27.902344 23.929688 C 27.417969 25.820312 27.839844 27.847656 28.363281 29.6875 C 28.921875 31.644531 29.679688 33.5625 29.789062 35.613281 C 29.890625 37.445312 29.390625 39.226562 28.589844 40.855469 C 28.398438 41.242188 28.183594 41.621094 27.941406 41.980469 C 27.820312 42.164062 27.691406 42.339844 27.558594 42.515625 C 27.398438 42.722656 27.304688 42.96875 27.152344 43.179688 C 26.566406 44 25.636719 44.757812 24.621094 44.925781 C 23.652344 45.085938 22.679688 44.726562 21.761719 44.453125 C 20.804688 44.171875 19.882812 43.710938 19.035156 43.183594 C 17.222656 42.054688 15.757812 40.441406 14.523438 38.722656 C 13.332031 37.0625 12.238281 35.273438 11.414062 33.40625 C 11.066406 32.621094 10.921875 31.851562 10.910156 31.003906 C 10.902344 30.613281 10.339844 30.621094 10.257812 30.96875 C 9.832031 32.78125 10.730469 34.613281 11.605469 36.152344 C 12.714844 38.109375 13.957031 39.996094 15.492188 41.652344 C 18.046875 44.40625 22.421875 46.972656 26.050781 44.707031 C 26.453125 44.457031 26.835938 44.1875 27.203125 43.882812 C 27.558594 43.585938 27.992188 43.355469 28.300781 43.007812 C 28.917969 42.324219 29.433594 41.542969 29.855469 40.722656 C 30.691406 39.09375 31 37.128906 30.886719 35.308594 C 30.753906 33.25 29.988281 31.289062 29.421875 29.324219 C 28.90625 27.539062 28.5 25.535156 29.097656 23.722656 C 29.316406 23.0625 29.652344 22.429688 30.09375 21.898438 C 30.535156 21.367188 31.09375 20.964844 31.648438 20.566406 C 31.832031 20.4375 31.726562 20.164062 31.507812 20.167969 Z M 31.507812 20.167969 " fill-opacity="1" fill-rule="nonzero"/></g></g></g></g><g clip-path="url(#039a7248be)"><g clip-path="url(#f7b34b00b5)"><g clip-path="url(#7a63fb4816)"><g clip-path="url(#7dbda9e7ef)"><path fill="#000000" d="M 11.4375 24.765625 C 11.828125 23.839844 12.117188 22.871094 12.503906 21.945312 C 12.894531 21.003906 13.328125 20.074219 13.828125 19.1875 C 14.804688 17.4375 16.09375 15.835938 17.609375 14.523438 C 20.511719 12.007812 24.230469 10.503906 28.066406 10.257812 C 31.9375 10.011719 35.804688 11.09375 39.21875 12.898438 C 43.195312 14.996094 46.34375 18.179688 49.410156 21.40625 C 49.839844 21.859375 50.300781 22.289062 50.742188 22.734375 C 50.890625 22.886719 51.105469 22.664062 51.007812 22.5 C 48.699219 18.574219 45.285156 15.355469 41.460938 12.917969 C 38.164062 10.816406 34.347656 9.417969 30.441406 9.15625 C 26.53125 8.894531 22.644531 9.867188 19.308594 11.898438 C 15.863281 13.996094 13.160156 17.273438 11.777344 21.0625 C 11.359375 22.203125 11.078125 23.492188 11.144531 24.710938 C 11.152344 24.863281 11.378906 24.910156 11.4375 24.765625 Z M 11.4375 24.765625 " fill-opacity="1" fill-rule="nonzero"/></g></g></g></g><g clip-path="url(#ccc72afe36)"><g clip-path="url(#839b10e1c1)"><g clip-path="url(#62c092a288)"><g clip-path="url(#fb1b24efa3)"><path fill="#000000" d="M 28.675781 23.75 C 29.851562 22.757812 31.296875 22.242188 32.828125 22.175781 C 34.4375 22.109375 36.054688 22.472656 37.578125 22.980469 C 39.1875 23.515625 40.765625 24.1875 42.21875 25.074219 C 42.933594 25.507812 43.597656 26.027344 44.207031 26.597656 C 44.515625 26.882812 44.792969 27.183594 45.121094 27.445312 C 45.28125 27.578125 45.425781 27.71875 45.589844 27.847656 C 45.710938 27.941406 45.71875 28.085938 45.804688 28.199219 C 45.878906 28.292969 45.945312 28.367188 46.035156 28.445312 C 46.277344 28.660156 46.582031 28.394531 46.515625 28.121094 C 46.460938 27.902344 46.355469 27.785156 46.222656 27.613281 C 46.09375 27.449219 46.054688 27.21875 45.949219 27.039062 C 45.707031 26.617188 45.460938 26.265625 45.117188 25.921875 C 44.453125 25.257812 43.695312 24.703125 42.910156 24.195312 C 41.339844 23.183594 39.578125 22.472656 37.808594 21.902344 C 36.132812 21.363281 34.28125 20.941406 32.53125 21.316406 C 30.988281 21.644531 29.488281 22.328125 28.625 23.707031 C 28.605469 23.734375 28.652344 23.773438 28.675781 23.75 Z M 28.675781 23.75 " fill-opacity="1" fill-rule="nonzero"/></g></g></g></g><g clip-path="url(#93ce00fcdf)"><g clip-path="url(#a8b492435d)"><g clip-path="url(#06b24901ff)"><g clip-path="url(#3637cfb47e)"><path fill="#000000" d="M 50.082031 22.003906 C 50.695312 22.730469 51.472656 23.195312 52.339844 23.5625 C 53.253906 23.953125 54.375 23.953125 55.347656 23.921875 C 56.378906 23.890625 57.457031 23.789062 58.457031 23.546875 C 58.480469 23.542969 58.503906 23.535156 58.527344 23.53125 C 58.65625 23.542969 58.660156 23.511719 58.539062 23.445312 C 58.550781 23.46875 58.527344 23.53125 58.519531 23.550781 C 58.46875 23.695312 58.371094 23.808594 58.253906 23.898438 C 57.832031 24.21875 57.328125 24.425781 56.84375 24.625 C 55.875 25.023438 54.964844 25.4375 54.160156 26.125 C 53.339844 26.828125 52.695312 27.683594 52.132812 28.59375 C 50.996094 30.429688 50.273438 32.492188 49.046875 34.277344 C 48.378906 35.246094 47.554688 36.082031 46.542969 36.699219 C 46.777344 36.851562 47.011719 37.007812 47.246094 37.160156 C 47.683594 35.609375 47.839844 33.992188 47.742188 32.382812 C 47.695312 31.558594 47.5625 30.742188 47.382812 29.933594 C 47.289062 29.53125 47.175781 29.136719 47.050781 28.746094 C 46.976562 28.519531 46.734375 28.171875 46.984375 28.007812 C 47.199219 27.867188 47.507812 27.835938 47.75 27.757812 C 48.015625 27.671875 48.269531 27.542969 48.453125 27.328125 C 48.671875 27.082031 48.679688 26.761719 48.648438 26.453125 C 48.636719 26.3125 48.613281 26.308594 48.738281 26.316406 C 48.910156 26.328125 49.085938 26.375 49.257812 26.40625 C 50.011719 26.539062 50.574219 26.128906 50.847656 25.441406 C 51.15625 24.675781 50.894531 23.84375 50.964844 23.050781 C 50.984375 22.859375 50.722656 22.8125 50.675781 22.996094 C 50.480469 23.730469 50.671875 24.625 50.230469 25.273438 C 50.03125 25.574219 49.746094 25.714844 49.390625 25.65625 C 49.078125 25.605469 48.765625 25.503906 48.449219 25.582031 C 48.128906 25.664062 47.933594 25.917969 47.878906 26.234375 C 47.839844 26.453125 48 26.765625 47.753906 26.875 C 47.210938 27.117188 46.625 27.050781 46.179688 27.511719 C 45.613281 28.097656 46.160156 29.066406 46.347656 29.699219 C 46.578125 30.488281 46.726562 31.296875 46.804688 32.117188 C 46.960938 33.757812 46.792969 35.414062 46.351562 36.996094 C 46.234375 37.417969 46.75 37.613281 47.054688 37.457031 C 48.957031 36.464844 50.136719 34.542969 51.09375 32.699219 C 52.085938 30.789062 52.917969 28.757812 54.421875 27.179688 C 55.152344 26.410156 56.066406 25.925781 57.011719 25.472656 C 57.8125 25.09375 58.722656 24.738281 59.214844 23.96875 C 59.394531 23.695312 59.441406 23.296875 59.269531 23.007812 C 59.019531 22.585938 58.570312 22.53125 58.121094 22.542969 C 57.621094 22.554688 57.121094 22.652344 56.628906 22.707031 C 56.089844 22.765625 55.550781 22.820312 55.011719 22.84375 C 53.375 22.917969 51.582031 22.757812 50.121094 21.960938 C 50.09375 21.945312 50.0625 21.980469 50.082031 22.003906 Z M 50.082031 22.003906 " fill-opacity="1" fill-rule="nonzero"/></g></g></g></g><g clip-path="url(#0c7a441532)"><g clip-path="url(#0d38f1b31f)"><g clip-path="url(#33cecfd783)"><g clip-path="url(#36e76e604f)"><path fill="#000000" d="M 48.289062 29.242188 C 48.464844 29.628906 48.605469 30.039062 48.679688 30.460938 C 48.75 30.871094 48.652344 31.289062 48.730469 31.695312 C 48.753906 31.8125 48.902344 31.890625 48.988281 31.78125 C 49.582031 31.027344 49.054688 29.710938 48.414062 29.15625 C 48.359375 29.105469 48.253906 29.167969 48.289062 29.242188 Z M 48.289062 29.242188 " fill-opacity="1" fill-rule="nonzero"/></g></g></g></g><g clip-path="url(#23cd73b22f)"><g clip-path="url(#880156196d)"><g clip-path="url(#4cf4045bc6)"><g clip-path="url(#7341376b97)"><path fill="#000000" d="M 50.175781 28.261719 C 50.28125 28.660156 50.390625 29.066406 50.589844 29.429688 C 50.621094 29.488281 50.71875 29.453125 50.707031 29.390625 C 50.636719 28.984375 50.472656 28.59375 50.304688 28.21875 C 50.269531 28.136719 50.15625 28.175781 50.175781 28.261719 Z M 50.175781 28.261719 " fill-opacity="1" fill-rule="nonzero"/></g></g></g></g><g clip-path="url(#2455d28530)"><g clip-path="url(#88bd06e7df)"><g clip-path="url(#5ebe6db8b0)"><g clip-path="url(#2521febc9d)"><path fill="#000000" d="M 28.546875 23.78125 C 29.421875 23.765625 30.214844 23.839844 31.027344 24.207031 C 31.953125 24.625 32.699219 25.347656 33.628906 25.769531 C 34.035156 25.953125 34.5625 26.097656 35.003906 25.976562 C 35.5 25.839844 35.820312 25.46875 36.003906 25.003906 C 36.164062 24.589844 36.222656 24.15625 36.328125 23.726562 C 36.378906 23.519531 36.457031 23.332031 36.550781 23.140625 C 36.660156 22.914062 36.863281 22.816406 37.050781 22.671875 C 37.085938 22.640625 37.085938 22.589844 37.042969 22.566406 C 36.339844 22.199219 35.742188 23.304688 35.570312 23.800781 C 35.429688 24.210938 35.304688 24.644531 34.933594 24.898438 C 34.585938 25.136719 33.929688 24.734375 33.628906 24.574219 C 33.179688 24.335938 32.773438 24.023438 32.332031 23.773438 C 31.910156 23.539062 31.460938 23.371094 30.992188 23.257812 C 30.191406 23.0625 29.15625 23.109375 28.503906 23.660156 C 28.453125 23.703125 28.476562 23.785156 28.546875 23.78125 Z M 28.546875 23.78125 " fill-opacity="1" fill-rule="nonzero"/></g></g></g></g><g clip-path="url(#c842b7c2be)"><g clip-path="url(#42dcf16751)"><g clip-path="url(#2df30ff348)"><g clip-path="url(#e0f015b6e4)"><path fill="#000000" d="M 26.371094 43.984375 C 25.929688 44.308594 25.421875 43.953125 25.089844 43.640625 C 24.800781 43.367188 24.527344 43.105469 24.191406 42.882812 C 23.582031 42.476562 22.90625 42.21875 22.183594 42.105469 C 21.394531 41.984375 20.609375 42.160156 19.832031 42.265625 C 19.023438 42.371094 18.03125 42.347656 17.496094 41.628906 C 17.445312 41.785156 17.394531 41.9375 17.34375 42.089844 C 18.230469 41.886719 19.199219 41.914062 20.105469 41.90625 C 21.042969 41.898438 21.984375 41.964844 22.894531 42.203125 C 23.34375 42.320312 23.773438 42.507812 24.179688 42.738281 C 24.597656 42.976562 24.960938 43.296875 25.367188 43.558594 C 26.070312 44.011719 26.824219 43.914062 27.492188 43.476562 C 27.832031 43.25 27.292969 42.8125 27.140625 43.175781 C 26.945312 43.636719 26.25 43.425781 25.910156 43.253906 C 25.496094 43.046875 25.148438 42.710938 24.773438 42.445312 C 24.085938 41.949219 23.269531 41.667969 22.441406 41.503906 C 21.585938 41.332031 20.699219 41.308594 19.824219 41.316406 C 18.929688 41.324219 18.019531 41.332031 17.140625 41.511719 C 16.949219 41.550781 16.886719 41.824219 16.992188 41.96875 C 18.207031 43.65625 20.433594 42.5 22.089844 42.640625 C 23.042969 42.726562 23.925781 43.144531 24.625 43.789062 C 24.925781 44.066406 25.246094 44.398438 25.675781 44.417969 C 25.992188 44.429688 26.269531 44.304688 26.402344 44.011719 C 26.410156 43.992188 26.390625 43.972656 26.371094 43.984375 Z M 26.371094 43.984375 " fill-opacity="1" fill-rule="nonzero"/></g></g></g></g><g clip-path="url(#9ab5c5ef5c)"><g clip-path="url(#982232d2f3)"><g clip-path="url(#ec7ee78dec)"><g clip-path="url(#5dc3d6ea8a)"><path fill="#000000" d="M 17.460938 34.839844 C 17.660156 34.503906 17.5 34.242188 17.140625 34.128906 C 16.632812 33.964844 16.089844 34.570312 15.871094 34.953125 C 15.246094 36.058594 15.863281 37.636719 17.203125 37.785156 C 18.429688 37.921875 19.332031 36.679688 19.042969 35.542969 C 18.753906 34.429688 17.390625 33.585938 16.375 34.328125 C 16.25 34.421875 16.269531 34.660156 16.449219 34.679688 C 17.035156 34.738281 17.722656 34.84375 18.078125 35.359375 C 18.433594 35.871094 18.25 36.554688 17.679688 36.78125 C 17.085938 37.019531 16.585938 36.46875 16.546875 35.914062 C 16.527344 35.601562 16.644531 35.304688 16.792969 35.039062 C 16.871094 34.898438 16.976562 34.757812 17.109375 34.667969 C 17.222656 34.585938 17.570312 34.578125 17.457031 34.835938 C 17.457031 34.839844 17.460938 34.84375 17.460938 34.839844 Z M 17.460938 34.839844 " fill-opacity="1" fill-rule="nonzero"/></g></g></g></g><g clip-path="url(#2451cbe871)"><g clip-path="url(#7df0d5c495)"><g clip-path="url(#73302addc5)"><g clip-path="url(#90b5780682)"><path fill="#000000" d="M 17.109375 35.074219 C 16.753906 35.023438 16.363281 35.246094 16.242188 35.582031 C 16.109375 35.945312 16.3125 36.34375 16.703125 36.402344 C 17.539062 36.53125 17.847656 35.148438 17.019531 34.917969 C 16.640625 34.8125 16.269531 35.054688 16.230469 35.445312 C 16.1875 35.875 16.574219 36.152344 16.964844 36.03125 C 17.332031 35.917969 17.519531 35.339844 17.078125 35.1875 C 16.695312 35.058594 16.222656 35.453125 16.46875 35.84375 C 16.5625 35.988281 16.828125 36.03125 16.929688 35.871094 C 16.941406 35.859375 17.019531 35.742188 16.984375 35.785156 C 16.992188 35.773438 17 35.765625 17.007812 35.753906 C 16.964844 35.800781 16.914062 35.796875 16.851562 35.746094 C 16.820312 35.679688 16.785156 35.613281 16.75 35.542969 C 16.746094 35.507812 16.765625 35.492188 16.777344 35.515625 C 16.746094 35.449219 16.824219 35.425781 16.867188 35.433594 C 17.09375 35.457031 17.054688 35.738281 16.949219 35.867188 C 16.789062 36.0625 16.585938 35.917969 16.597656 35.699219 C 16.617188 35.417969 16.941406 35.3125 17.132812 35.175781 C 17.167969 35.148438 17.160156 35.082031 17.109375 35.074219 Z M 17.109375 35.074219 " fill-opacity="1" fill-rule="nonzero"/></g></g></g></g><g clip-path="url(#833b06c836)"><g clip-path="url(#82d520fd41)"><g clip-path="url(#b6db945d88)"><g clip-path="url(#27cf38b368)"><path fill="#000000" d="M 18.046875 42.519531 C 17.894531 43.054688 18.496094 43.71875 18.90625 43.972656 C 19.191406 44.148438 19.527344 43.734375 19.328125 43.480469 C 19.167969 43.285156 18.980469 43.117188 18.800781 42.9375 C 18.625 42.753906 18.453125 42.519531 18.203125 42.4375 C 18.128906 42.414062 18.066406 42.445312 18.046875 42.519531 Z M 18.046875 42.519531 " fill-opacity="1" fill-rule="nonzero"/></g></g></g></g><g clip-path="url(#04ffe1345c)"><g clip-path="url(#12b4f614b1)"><g clip-path="url(#b3cb20bc9f)"><g clip-path="url(#46c5f3dca6)"><path fill="#000000" d="M 18 40.816406 C 17.542969 40.367188 16.742188 40.375 16.144531 40.453125 C 15.382812 40.550781 14.667969 40.914062 13.996094 41.253906 C 13.265625 41.625 12.578125 42.066406 11.847656 42.4375 C 11.070312 42.832031 10.253906 43.136719 9.421875 43.386719 C 7.800781 43.867188 5.898438 43.757812 4.703125 42.40625 C 4.121094 41.753906 3.8125 40.757812 4.453125 40.042969 C 4.699219 39.769531 5.214844 39.679688 5.472656 39.996094 C 5.8125 40.417969 4.835938 40.636719 4.609375 40.660156 C 4.425781 40.679688 4.410156 40.945312 4.59375 40.980469 C 5.285156 41.117188 6.144531 40.753906 5.960938 39.925781 C 5.796875 39.195312 4.753906 39.238281 4.285156 39.550781 C 3.574219 40.03125 3.488281 41.015625 3.746094 41.761719 C 4.035156 42.59375 4.765625 43.25 5.503906 43.679688 C 7.183594 44.652344 9.253906 44.648438 11.03125 44.019531 C 12.78125 43.398438 14.238281 42.179688 15.964844 41.515625 C 16.300781 41.386719 16.648438 41.292969 16.988281 41.179688 C 17.304688 41.074219 17.652344 41.09375 17.972656 40.980469 C 18.042969 40.957031 18.054688 40.867188 18 40.816406 Z M 18 40.816406 " fill-opacity="1" fill-rule="nonzero"/></g></g></g></g><g clip-path="url(#a1dcfdf283)"><g clip-path="url(#1d0dbac4bc)"><g clip-path="url(#0632f8e790)"><g clip-path="url(#1c5f02f861)"><path fill="#000000" d="M 27.082031 43.441406 C 27.007812 44.140625 27.054688 44.828125 27.289062 45.496094 C 27.542969 46.210938 27.890625 46.894531 28.25 47.5625 C 28.976562 48.914062 30.382812 49.855469 31.960938 49.597656 C 32.667969 49.480469 33.320312 49.144531 33.773438 48.585938 C 34.148438 48.121094 34.496094 47.5 34.269531 46.890625 C 34.085938 46.410156 33.441406 46.070312 33.011719 46.441406 C 32.648438 46.757812 32.679688 47.332031 33.164062 47.488281 C 33.308594 47.53125 33.445312 47.320312 33.347656 47.207031 C 33.261719 47.109375 33.273438 46.9375 33.378906 46.851562 C 33.605469 46.664062 33.730469 47.195312 33.714844 47.304688 C 33.65625 47.738281 33.183594 47.996094 32.851562 48.195312 C 32.0625 48.671875 31.105469 48.707031 30.28125 48.296875 C 29.40625 47.863281 28.976562 46.875 28.511719 46.070312 C 28.03125 45.234375 27.523438 44.34375 27.203125 43.433594 C 27.183594 43.375 27.085938 43.375 27.082031 43.441406 Z M 27.082031 43.441406 " fill-opacity="1" fill-rule="nonzero"/></g></g></g></g><g clip-path="url(#26fc422588)"><g clip-path="url(#bcef7a3af6)"><g clip-path="url(#5ca387cb65)"><g clip-path="url(#99534bedb1)"><path fill="#000000" d="M 12.375 29.488281 C 12.472656 28.582031 11.6875 27.75 11.015625 27.242188 C 10.113281 26.566406 9.035156 26.160156 8.078125 25.570312 C 7.191406 25.027344 6.476562 24.277344 5.625 23.691406 C 4.855469 23.164062 4.011719 23.058594 3.195312 23.527344 C 2.363281 24.007812 1.734375 24.945312 1.25 25.746094 C 0.746094 26.578125 0.347656 27.5625 0.25 28.539062 C 0.15625 29.496094 0.503906 30.277344 1.320312 30.800781 C 2.074219 31.285156 3.050781 31.492188 3.929688 31.578125 C 5.058594 31.6875 6.195312 31.570312 7.308594 31.398438 C 7.851562 31.316406 8.382812 31.171875 8.914062 31.039062 C 9.5 30.894531 10.246094 30.652344 10.800781 31.019531 C 10.898438 31.082031 11.0625 30.976562 10.96875 30.871094 C 10.375 30.203125 9.464844 30.347656 8.671875 30.429688 C 7.753906 30.527344 6.84375 30.675781 5.921875 30.761719 C 5.019531 30.84375 4.113281 30.835938 3.222656 30.652344 C 2.398438 30.484375 1.238281 30.140625 1.074219 29.1875 C 0.914062 28.261719 1.390625 27.226562 1.796875 26.425781 C 2.03125 25.960938 2.324219 25.527344 2.652344 25.121094 C 2.949219 24.746094 3.296875 24.351562 3.734375 24.136719 C 4.632812 23.695312 5.34375 24.644531 5.925781 25.1875 C 6.75 25.964844 7.707031 26.578125 8.71875 27.078125 C 9.390625 27.410156 10.085938 27.71875 10.699219 28.15625 C 10.988281 28.359375 11.265625 28.582031 11.523438 28.824219 C 11.761719 29.050781 11.953125 29.324219 12.1875 29.554688 C 12.25 29.613281 12.367188 29.574219 12.375 29.488281 Z M 12.375 29.488281 " fill-opacity="1" fill-rule="nonzero"/></g></g></g></g><g clip-path="url(#eec5906c5d)"><g clip-path="url(#495f526f65)"><g clip-path="url(#ffc7528014)"><g clip-path="url(#84ee1afacc)"><path fill="#000000" d="M 12.113281 29.109375 C 12.125 29.121094 12.132812 29.136719 12.144531 29.148438 C 12.144531 29.140625 12.140625 29.132812 12.140625 29.125 C 12.121094 29.1875 12.109375 29.25 12.167969 29.300781 C 12.222656 29.34375 12.304688 29.339844 12.347656 29.285156 C 12.386719 29.242188 12.390625 29.175781 12.355469 29.128906 C 12.335938 29.101562 12.304688 29.082031 12.273438 29.074219 C 12.226562 29.066406 12.199219 29.085938 12.160156 29.101562 C 12.167969 29.105469 12.175781 29.105469 12.183594 29.105469 C 12.167969 29.097656 12.152344 29.085938 12.136719 29.078125 C 12.121094 29.070312 12.101562 29.09375 12.113281 29.109375 Z M 12.113281 29.109375 " fill-opacity="1" fill-rule="nonzero"/></g></g></g></g><g clip-path="url(#7daff09e40)"><g clip-path="url(#e2c8ec4d6b)"><g clip-path="url(#06700cf6ff)"><g clip-path="url(#1b8a8924d0)"><path fill="#000000" d="M 15.320312 27.992188 C 14.777344 28.121094 14.226562 28.160156 13.691406 28.320312 C 13.132812 28.484375 12.625 28.699219 12.128906 29.003906 C 11.652344 29.292969 11.230469 29.675781 10.878906 30.105469 C 10.613281 30.429688 10.171875 31.011719 10.363281 31.453125 C 10.40625 31.546875 10.523438 31.636719 10.632812 31.582031 C 11.007812 31.398438 11.167969 30.886719 11.410156 30.5625 C 11.710938 30.164062 12.097656 29.839844 12.5 29.550781 C 12.90625 29.261719 13.359375 29.046875 13.796875 28.808594 C 14.289062 28.539062 14.820312 28.257812 15.347656 28.066406 C 15.394531 28.050781 15.367188 27.980469 15.320312 27.992188 Z M 15.320312 27.992188 " fill-opacity="1" fill-rule="nonzero"/></g></g></g></g><g clip-path="url(#d5d0ee5fb9)"><g clip-path="url(#ea0d1ba5cb)"><g clip-path="url(#b91e301694)"><g clip-path="url(#0818b4b5a7)"><path fill="#000000" d="M 4.230469 26.164062 C 4.390625 26.613281 4.816406 26.964844 5.164062 27.273438 C 5.554688 27.621094 5.996094 27.910156 6.457031 28.164062 C 6.914062 28.417969 7.40625 28.609375 7.90625 28.761719 C 8.386719 28.914062 8.96875 29.070312 9.464844 28.9375 C 9.550781 28.914062 9.550781 28.785156 9.476562 28.753906 C 9.082031 28.574219 8.617188 28.539062 8.199219 28.4375 C 7.6875 28.308594 7.191406 28.113281 6.71875 27.878906 C 6.242188 27.640625 5.800781 27.34375 5.382812 27.015625 C 5.015625 26.726562 4.714844 26.332031 4.3125 26.09375 C 4.265625 26.066406 4.214844 26.121094 4.230469 26.164062 Z M 4.230469 26.164062 " fill-opacity="1" fill-rule="nonzero"/></g></g></g></g><g clip-path="url(#8ede9993ad)"><g clip-path="url(#ada41bfa41)"><g clip-path="url(#20fa77088c)"><g clip-path="url(#666ea6bb46)"><path fill="#000000" d="M 4.300781 27.671875 C 4.296875 27.664062 4.292969 27.65625 4.292969 27.648438 C 4.28125 27.628906 4.261719 27.605469 4.238281 27.605469 C 4.136719 27.597656 4.03125 27.699219 4.113281 27.804688 C 4.390625 28.144531 4.867188 28.382812 5.246094 28.59375 C 5.722656 28.859375 6.230469 29.078125 6.746094 29.253906 C 7.191406 29.402344 7.714844 29.597656 8.1875 29.515625 C 8.296875 29.496094 8.324219 29.363281 8.226562 29.304688 C 7.960938 29.148438 7.644531 29.089844 7.351562 29.011719 C 6.960938 28.90625 6.578125 28.78125 6.199219 28.636719 C 5.84375 28.5 5.5 28.339844 5.164062 28.164062 C 5.015625 28.089844 4.867188 28.011719 4.71875 27.929688 C 4.644531 27.890625 4.570312 27.851562 4.5 27.808594 C 4.460938 27.789062 4.425781 27.765625 4.390625 27.746094 C 4.320312 27.667969 4.261719 27.667969 4.214844 27.75 C 4.261719 27.777344 4.324219 27.71875 4.300781 27.671875 Z M 4.300781 27.671875 " fill-opacity="1" fill-rule="nonzero"/></g></g></g></g><g clip-path="url(#20e398087a)"><g clip-path="url(#bc6633ca9b)"><g clip-path="url(#c2266722e5)"><g clip-path="url(#c7a1ee62b2)"><path fill="#000000" d="M 3.917969 28.964844 C 4.382812 29.21875 4.898438 29.382812 5.402344 29.53125 C 5.910156 29.683594 6.429688 29.816406 6.960938 29.824219 C 7.0625 29.824219 7.050781 29.6875 6.96875 29.660156 C 6.46875 29.507812 5.953125 29.425781 5.445312 29.296875 C 4.945312 29.164062 4.457031 28.976562 3.957031 28.84375 C 3.882812 28.824219 3.859375 28.929688 3.917969 28.964844 Z M 3.917969 28.964844 " fill-opacity="1" fill-rule="nonzero"/></g></g></g></g><g clip-path="url(#cb3b9c746a)"><g clip-path="url(#1a5f928114)"><g clip-path="url(#3b4aaf0fb5)"><g clip-path="url(#0d923eea62)"><path fill="#000000" d="M 11.570312 23.039062 C 11.117188 23.644531 10.933594 24.476562 10.792969 25.207031 C 10.644531 25.980469 10.628906 26.890625 10.765625 27.667969 C 10.855469 28.179688 11.589844 28.136719 11.574219 27.605469 C 11.550781 26.847656 11.492188 26.105469 11.535156 25.34375 C 11.554688 24.945312 11.570312 24.550781 11.609375 24.15625 C 11.648438 23.796875 11.695312 23.4375 11.679688 23.074219 C 11.675781 23.023438 11.601562 22.996094 11.570312 23.039062 Z M 11.570312 23.039062 " fill-opacity="1" fill-rule="nonzero"/></g></g></g></g><g clip-path="url(#ab03d72840)"><g clip-path="url(#47badc0c1d)"><g clip-path="url(#8a6ba554cc)"><g clip-path="url(#bfe1ec441f)"><path fill="#000000" d="M 30.40625 36.277344 C 30.269531 36.816406 31.121094 37.078125 31.484375 37.203125 C 32.207031 37.453125 32.964844 37.492188 33.71875 37.503906 C 34.527344 37.519531 35.335938 37.507812 36.136719 37.632812 C 36.535156 37.699219 36.921875 37.8125 37.289062 37.976562 C 37.476562 38.058594 37.652344 38.164062 37.820312 38.285156 C 37.863281 38.324219 37.914062 38.359375 37.964844 38.386719 C 37.933594 38.492188 37.851562 38.59375 37.796875 38.683594 C 36.976562 40.046875 35.617188 41.164062 34.109375 41.691406 C 33.292969 41.976562 32.460938 41.722656 31.71875 41.335938 C 31.324219 41.132812 30.976562 40.859375 30.652344 40.558594 C 30.371094 40.300781 30.128906 39.964844 29.789062 39.78125 C 29.707031 39.738281 29.601562 39.8125 29.613281 39.902344 C 29.695312 40.699219 30.632812 41.351562 31.25 41.742188 C 31.964844 42.199219 32.84375 42.496094 33.695312 42.421875 C 34.511719 42.351562 35.324219 41.878906 35.992188 41.441406 C 36.730469 40.957031 37.378906 40.328125 37.914062 39.632812 C 38.15625 39.320312 38.449219 38.949219 38.574219 38.570312 C 38.707031 38.191406 38.421875 37.933594 38.136719 37.734375 C 37.449219 37.238281 36.605469 37.03125 35.777344 36.941406 C 34.917969 36.84375 34.054688 36.898438 33.195312 36.882812 C 32.746094 36.871094 32.304688 36.84375 31.859375 36.792969 C 31.546875 36.757812 30.589844 36.671875 30.523438 36.285156 C 30.511719 36.21875 30.421875 36.210938 30.40625 36.277344 Z M 30.40625 36.277344 " fill-opacity="1" fill-rule="nonzero"/></g></g></g></g><g clip-path="url(#86c66887c6)"><g clip-path="url(#51a6788c9c)"><g clip-path="url(#73f3a34aee)"><g clip-path="url(#a47a317edd)"><path fill="#000000" d="M 30.175781 37.316406 C 30.679688 38.242188 31.585938 38.796875 32.5625 39.117188 C 33.039062 39.273438 33.527344 39.382812 34.023438 39.460938 C 34.441406 39.527344 35.125 39.695312 35.488281 39.417969 C 35.605469 39.324219 35.601562 39.183594 35.507812 39.078125 C 35.230469 38.777344 34.65625 38.804688 34.277344 38.757812 C 33.808594 38.699219 33.34375 38.632812 32.882812 38.527344 C 31.929688 38.308594 31.011719 37.867188 30.257812 37.242188 C 30.207031 37.199219 30.144531 37.261719 30.175781 37.316406 Z M 30.175781 37.316406 " fill-opacity="1" fill-rule="nonzero"/></g></g></g></g><g clip-path="url(#92b03aa042)"><g clip-path="url(#4340c91ca6)"><g clip-path="url(#cbbd5f1f06)"><g clip-path="url(#fcf648d471)"><path fill="#000000" d="M 29.761719 38.601562 C 30.234375 39.011719 30.777344 39.304688 31.34375 39.5625 C 31.617188 39.691406 31.898438 39.804688 32.179688 39.914062 C 32.441406 40.015625 32.695312 40.121094 32.96875 40.027344 C 33.0625 39.996094 33.117188 39.863281 33.050781 39.777344 C 32.890625 39.578125 32.703125 39.523438 32.464844 39.449219 C 32.15625 39.351562 31.847656 39.25 31.542969 39.136719 C 30.972656 38.921875 30.417969 38.671875 29.839844 38.484375 C 29.765625 38.460938 29.699219 38.546875 29.761719 38.601562 Z M 29.761719 38.601562 " fill-opacity="1" fill-rule="nonzero"/></g></g></g></g><g clip-path="url(#9968890e22)"><g clip-path="url(#fd50a91780)"><g clip-path="url(#56370cd569)"><g clip-path="url(#62827c0b73)"><path fill="#000000" d="M 29.601562 39.664062 C 29.855469 39.9375 30.265625 40.214844 30.636719 40.28125 C 30.769531 40.304688 30.820312 40.148438 30.738281 40.0625 C 30.480469 39.789062 30.03125 39.601562 29.660156 39.535156 C 29.585938 39.523438 29.554688 39.613281 29.601562 39.664062 Z M 29.601562 39.664062 " fill-opacity="1" fill-rule="nonzero"/></g></g></g></g><g clip-path="url(#335d77e53c)"><g clip-path="url(#450fb49b05)"><g clip-path="url(#545cbce822)"><g clip-path="url(#a8690d0f4e)"><path fill="#000000" d="M 19.28125 35.1875 C 19.242188 35.585938 19.230469 35.96875 19.136719 36.359375 C 19.03125 36.785156 18.742188 37.101562 18.605469 37.5 C 18.578125 37.578125 18.65625 37.65625 18.734375 37.609375 C 19.089844 37.386719 19.25 36.894531 19.367188 36.511719 C 19.492188 36.097656 19.519531 35.59375 19.359375 35.183594 C 19.347656 35.148438 19.289062 35.144531 19.28125 35.1875 Z M 19.28125 35.1875 " fill-opacity="1" fill-rule="nonzero"/></g></g></g></g><g clip-path="url(#f26fd7f4ab)"><g clip-path="url(#d5eeb57235)"><g clip-path="url(#99fbdc4883)"><g clip-path="url(#8580f82731)"><path fill="#000000" d="M 19.613281 35.953125 C 19.550781 36.1875 19.457031 36.414062 19.367188 36.636719 C 19.292969 36.824219 19.152344 36.996094 19.140625 37.199219 C 19.136719 37.277344 19.207031 37.335938 19.277344 37.289062 C 19.472656 37.167969 19.546875 36.921875 19.609375 36.714844 C 19.691406 36.460938 19.707031 36.222656 19.707031 35.960938 C 19.703125 35.902344 19.625 35.90625 19.613281 35.953125 Z M 19.613281 35.953125 " fill-opacity="1" fill-rule="nonzero"/></g></g></g></g><g clip-path="url(#6deab79fbe)"><g clip-path="url(#0edc7ee947)"><g clip-path="url(#58cee71285)"><g clip-path="url(#cf8d3277b9)"><path fill="#000000" d="M 15.671875 34.730469 C 15.191406 35.0625 14.949219 36.289062 15.527344 36.640625 C 15.582031 36.671875 15.65625 36.628906 15.664062 36.570312 C 15.699219 36.304688 15.570312 36.027344 15.558594 35.757812 C 15.546875 35.410156 15.683594 35.117188 15.761719 34.789062 C 15.773438 34.738281 15.710938 34.703125 15.671875 34.730469 Z M 15.671875 34.730469 " fill-opacity="1" fill-rule="nonzero"/></g></g></g></g><g clip-path="url(#cac716fb2b)"><g clip-path="url(#1e87682bf4)"><g clip-path="url(#ff71da3f44)"><g clip-path="url(#d9561da5ed)"><path fill="#000000" d="M 17.488281 42.226562 C 17.367188 42.347656 17.46875 42.523438 17.523438 42.648438 C 17.601562 42.816406 17.6875 42.980469 17.769531 43.144531 C 17.863281 43.328125 18.1875 43.296875 18.253906 43.109375 C 18.347656 42.835938 18.324219 42.589844 18.191406 42.332031 C 18.035156 42.4375 17.882812 42.539062 17.726562 42.644531 C 17.816406 42.8125 17.878906 42.980469 18.050781 43.078125 C 18.234375 43.183594 18.398438 43 18.40625 42.832031 C 18.414062 42.65625 18.273438 42.480469 18.191406 42.332031 C 18.117188 42.199219 17.917969 42.175781 17.800781 42.257812 C 17.664062 42.347656 17.652344 42.511719 17.726562 42.644531 C 17.761719 42.710938 17.769531 42.800781 17.746094 42.871094 C 17.90625 42.859375 18.070312 42.847656 18.230469 42.835938 C 18.136719 42.65625 17.753906 41.960938 17.488281 42.226562 Z M 17.488281 42.226562 " fill-opacity="1" fill-rule="nonzero"/></g></g></g></g><g clip-path="url(#a171557d69)"><g clip-path="url(#0eb248b238)"><g clip-path="url(#5c8d335b65)"><g clip-path="url(#7be3bd903f)"><path fill="#000000" d="M 24.921875 42.3125 C 25.34375 42.835938 26.132812 43.742188 26.910156 43.480469 C 26.980469 43.453125 26.996094 43.335938 26.917969 43.308594 C 26.597656 43.191406 26.269531 43.15625 25.960938 42.992188 C 25.597656 42.796875 25.292969 42.523438 24.976562 42.265625 C 24.945312 42.242188 24.898438 42.28125 24.921875 42.3125 Z M 24.921875 42.3125 " fill-opacity="1" fill-rule="nonzero"/></g></g></g></g><g clip-path="url(#444f0a3bfe)"><g clip-path="url(#cf5aebdb78)"><g clip-path="url(#c0cc8920af)"><g clip-path="url(#74680e0fae)"><path fill="#000000" d="M 23.011719 45.039062 C 23.429688 45.238281 23.925781 45.066406 24.328125 44.921875 C 24.816406 44.75 25.253906 44.539062 25.757812 44.414062 C 25.8125 44.402344 25.800781 44.328125 25.761719 44.304688 C 25.421875 44.097656 25.035156 44.320312 24.71875 44.472656 C 24.183594 44.722656 23.617188 44.933594 23.023438 44.980469 C 22.992188 44.984375 22.984375 45.027344 23.011719 45.039062 Z M 23.011719 45.039062 " fill-opacity="1" fill-rule="nonzero"/></g></g></g></g><g clip-path="url(#6b15a025b1)"><g clip-path="url(#bb9452a131)"><g clip-path="url(#1d97ac71ba)"><g clip-path="url(#e957b7f4f0)"><path fill="#000000" d="M 16.664062 28.546875 C 14.914062 28.808594 12.628906 29.523438 11.835938 31.277344 C 11.808594 31.34375 11.890625 31.398438 11.9375 31.34375 C 12.585938 30.617188 13.292969 30.023438 14.171875 29.589844 C 14.976562 29.191406 15.847656 28.953125 16.6875 28.644531 C 16.738281 28.625 16.726562 28.539062 16.664062 28.546875 Z M 16.664062 28.546875 " fill-opacity="1" fill-rule="nonzero"/></g></g></g></g><g clip-path="url(#8039415ca7)"><g clip-path="url(#e7f67609bc)"><g clip-path="url(#fff886408c)"><g clip-path="url(#1f2ec1a14e)"><path fill="#000000" d="M 25.957031 17.34375 C 26.699219 16.835938 27.359375 16.210938 28.109375 15.714844 C 28.875 15.207031 29.613281 14.675781 30.453125 14.292969 C 31.964844 13.605469 33.75 13.472656 35.394531 13.472656 C 37.007812 13.476562 38.601562 13.6875 40.160156 14.113281 C 40.949219 14.332031 41.707031 14.574219 42.453125 14.914062 C 43.183594 15.246094 43.847656 15.679688 44.554688 16.046875 C 44.640625 16.089844 44.699219 15.972656 44.640625 15.914062 C 44.070312 15.328125 43.355469 14.902344 42.644531 14.503906 C 41.925781 14.101562 41.148438 13.726562 40.367188 13.457031 C 38.789062 12.910156 37.109375 12.628906 35.4375 12.601562 C 33.710938 12.574219 31.882812 12.75 30.292969 13.445312 C 29.445312 13.8125 28.65625 14.359375 27.980469 14.988281 C 27.242188 15.671875 26.433594 16.394531 25.859375 17.230469 C 25.8125 17.296875 25.882812 17.394531 25.957031 17.34375 Z M 25.957031 17.34375 " fill-opacity="1" fill-rule="nonzero"/></g></g></g></g></g></g></g></svg>