<svg xmlns="http://www.w3.org/2000/svg" xmlns:xlink="http://www.w3.org/1999/xlink" width="400" zoomAndPan="magnify" viewBox="0 0 300 525.000007" height="700" preserveAspectRatio="xMidYMid meet" version="1.0"><defs><clipPath id="1ef583b8d3"><path d="M 0.285156 1 L 299.714844 1 L 299.714844 496 L 0.285156 496 Z M 0.285156 1 " clip-rule="nonzero"/></clipPath><clipPath id="33b6971c9c"><path d="M 0.285156 1 L 273 1 L 273 404 L 0.285156 404 Z M 0.285156 1 " clip-rule="nonzero"/></clipPath></defs><g clip-path="url(#1ef583b8d3)"><path fill="#efe1d5" d="M 272.324219 436.933594 C 272.324219 436.933594 261.1875 411.230469 254.636719 389.570312 C 271 382.941406 271 382.941406 271 382.941406 C 271 382.941406 244.230469 317.90625 241.574219 272.40625 C 241.878906 271.953125 242.183594 271.488281 242.460938 271.035156 C 254.203125 252.125 253.066406 220.5 250.503906 200.050781 C 248.550781 184.402344 245.664062 170.636719 242.046875 165.367188 C 253.628906 153.199219 257.90625 141.835938 258.273438 133.75 C 265.269531 127.292969 291.613281 101.523438 276.109375 93.207031 C 274.113281 92.132812 271.792969 91.429688 269.261719 91.007812 C 271.089844 89.070312 272.046875 87.066406 272.046875 85.023438 C 272.046875 73.144531 239.863281 62.90625 193.445312 58.195312 L 193.0625 57.503906 C 192.726562 57.691406 192.390625 57.871094 192.042969 58.058594 C 191.867188 58.039062 191.675781 58.019531 191.5 58.007812 C 184.820312 34.546875 175.304688 5.578125 168.582031 3.535156 C 157.167969 0.0703125 114.015625 2.042969 104.605469 3.535156 C 98.707031 4.441406 86.886719 35.289062 78.894531 58.175781 C 32.488281 62.886719 0.3125 73.113281 0.3125 85.003906 C 0.3125 91.195312 9.058594 96.941406 23.988281 101.691406 L 23.1875 101.769531 C 23.226562 102.125 27.023438 137.628906 39.652344 168.839844 L 40.394531 168.542969 C 45.847656 181.253906 55.234375 190.917969 63.675781 197.601562 C 59.980469 209.253906 54.140625 230.808594 54.355469 249.863281 C 51.15625 252.390625 47.476562 253.734375 43.25 254.03125 L 43.476562 257.199219 C 47.6875 256.90625 51.3125 255.679688 54.476562 253.648438 C 54.851562 260.273438 56.066406 266.480469 58.488281 271.695312 C 64.890625 285.519531 74.988281 294.117188 83.726562 299.324219 C 88.035156 321.273438 92.730469 341.601562 97.183594 353.785156 C 93.546875 377.789062 90.140625 399.519531 90.140625 399.519531 L 104.566406 403.875 L 107.789062 375.332031 C 108.964844 377.582031 109.933594 379.4375 110.734375 380.96875 L 110.554688 399.621094 L 127.375 399.699219 L 127.40625 391.929688 C 137.671875 394.761719 153 398.542969 169.441406 401.03125 C 181.421875 415.902344 200.878906 436.261719 224.613281 447.230469 C 224.613281 447.230469 221.207031 488.296875 239.367188 494.546875 C 257.53125 500.796875 257.679688 464.667969 257.679688 464.667969 C 257.679688 464.667969 273.996094 477.1875 294.34375 470.089844 C 314.660156 463 272.324219 436.933594 272.324219 436.933594 Z M 36.085938 152.175781 C 36.214844 153.386719 36.382812 154.582031 36.589844 155.769531 C 28.167969 130.066406 25.15625 104.996094 24.808594 101.9375 C 31.0625 103.882812 38.367188 105.660156 46.539062 107.21875 C 38.457031 118.257812 33.96875 132.359375 36.085938 152.175781 Z M 36.085938 152.175781 " fill-opacity="1" fill-rule="evenodd"/></g><path fill="#cebfb6" d="M 280.882812 100.289062 C 280.863281 99.941406 280.832031 99.605469 280.785156 99.28125 C 280.753906 99.113281 280.714844 98.953125 280.675781 98.796875 C 280.605469 98.511719 280.539062 98.234375 280.4375 97.957031 C 280.378906 97.789062 280.308594 97.621094 280.242188 97.464844 C 280.132812 97.207031 280.003906 96.960938 279.867188 96.714844 C 279.777344 96.554688 279.675781 96.398438 279.578125 96.238281 C 279.421875 96.003906 279.234375 95.765625 279.046875 95.539062 C 278.925781 95.398438 278.808594 95.253906 278.679688 95.113281 C 278.453125 94.875 278.183594 94.648438 277.917969 94.421875 C 277.789062 94.3125 277.671875 94.195312 277.53125 94.097656 C 277.097656 93.78125 276.632812 93.476562 276.109375 93.1875 C 275.585938 92.910156 275.042969 92.664062 274.488281 92.429688 C 274.113281 92.28125 273.730469 92.140625 273.34375 92.011719 C 273.164062 91.953125 272.996094 91.886719 272.820312 91.824219 C 272.296875 91.65625 271.761719 91.519531 271.21875 91.382812 C 271.179688 91.371094 271.128906 91.363281 271.089844 91.351562 C 270.496094 91.214844 269.882812 91.085938 269.273438 90.988281 C 266.167969 94.265625 260.554688 97.355469 252.917969 100.140625 C 252.039062 103.347656 250.851562 107.585938 249.390625 112.480469 C 254.785156 118.78125 257.214844 124.289062 258.035156 129.058594 C 258.273438 130.453125 258.371094 132.023438 258.292969 133.730469 C 258.617188 133.433594 258.996094 133.078125 259.398438 132.691406 C 259.558594 132.546875 259.707031 132.398438 259.875 132.238281 C 260.003906 132.109375 260.152344 131.972656 260.289062 131.84375 C 260.476562 131.667969 260.664062 131.480469 260.863281 131.292969 C 261.011719 131.152344 261.160156 131.003906 261.308594 130.855469 C 261.523438 130.648438 261.730469 130.433594 261.960938 130.214844 C 262.105469 130.066406 262.265625 129.910156 262.421875 129.75 C 262.652344 129.523438 262.886719 129.285156 263.136719 129.039062 C 263.292969 128.882812 263.460938 128.714844 263.621094 128.546875 C 263.886719 128.28125 264.152344 128.003906 264.417969 127.726562 C 264.566406 127.578125 264.707031 127.429688 264.855469 127.273438 C 265.199219 126.917969 265.546875 126.542969 265.902344 126.167969 C 265.980469 126.078125 266.058594 126 266.140625 125.910156 C 266.582031 125.4375 267.027344 124.941406 267.484375 124.449219 C 267.542969 124.390625 267.589844 124.320312 267.652344 124.261719 C 268.035156 123.835938 268.421875 123.402344 268.808594 122.957031 C 268.9375 122.808594 269.0625 122.660156 269.191406 122.511719 C 269.507812 122.148438 269.816406 121.78125 270.132812 121.417969 C 270.28125 121.238281 270.4375 121.050781 270.585938 120.875 C 270.882812 120.519531 271.167969 120.164062 271.457031 119.808594 C 271.605469 119.621094 271.761719 119.433594 271.910156 119.234375 C 272.195312 118.871094 272.484375 118.503906 272.769531 118.140625 C 272.917969 117.953125 273.054688 117.765625 273.195312 117.578125 C 273.492188 117.179688 273.789062 116.785156 274.074219 116.390625 C 274.191406 116.234375 274.3125 116.066406 274.429688 115.90625 C 274.796875 115.402344 275.140625 114.890625 275.488281 114.378906 C 275.527344 114.328125 275.558594 114.277344 275.597656 114.21875 C 275.980469 113.648438 276.347656 113.074219 276.703125 112.5 C 276.761719 112.402344 276.820312 112.292969 276.882812 112.195312 C 277.15625 111.742188 277.425781 111.277344 277.679688 110.824219 C 277.78125 110.644531 277.867188 110.46875 277.96875 110.289062 C 278.175781 109.90625 278.375 109.53125 278.5625 109.152344 C 278.660156 108.957031 278.75 108.757812 278.847656 108.5625 C 279.015625 108.207031 279.171875 107.851562 279.332031 107.496094 C 279.421875 107.296875 279.5 107.089844 279.578125 106.894531 C 279.71875 106.539062 279.84375 106.191406 279.964844 105.847656 C 280.035156 105.648438 280.101562 105.460938 280.160156 105.265625 C 280.28125 104.898438 280.371094 104.535156 280.46875 104.167969 C 280.507812 104.011719 280.558594 103.84375 280.597656 103.683594 C 280.707031 103.210938 280.785156 102.734375 280.832031 102.273438 C 280.832031 102.234375 280.84375 102.191406 280.855469 102.152344 C 280.914062 101.648438 280.933594 101.15625 280.921875 100.683594 C 280.914062 100.542969 280.894531 100.425781 280.882812 100.289062 Z M 255.171875 108.777344 C 254.726562 108.433594 254.269531 108.085938 253.824219 107.742188 C 254.429688 106.726562 255.21875 107.101562 256.03125 107.652344 C 255.664062 108.464844 255.863281 108.207031 255.171875 108.777344 Z M 266.445312 120.984375 C 265.535156 120.6875 264.605469 120.300781 263.640625 119.542969 C 264.398438 117.664062 265.773438 120.460938 266.742188 120.144531 C 266.96875 120.371094 266.613281 120.6875 266.445312 120.984375 Z M 268.371094 112.945312 C 268.203125 111.871094 266.960938 111.128906 265.851562 110.664062 C 267.976562 106.585938 272.601562 111.710938 268.371094 112.945312 Z M 270.675781 100.820312 C 267.285156 97.265625 274.570312 99.015625 270.675781 100.820312 Z M 240.644531 103.902344 C 244.417969 102.914062 247.886719 101.867188 251.058594 100.78125 C 250.277344 103.59375 249.289062 107.082031 248.105469 111.039062 C 246.027344 108.769531 243.546875 106.390625 240.644531 103.902344 Z M 157.335938 167.121094 C 151.25 167.5 136.03125 172.582031 125.617188 171.101562 C 115.199219 169.609375 102.542969 161.414062 96.296875 170.609375 C 96.296875 170.609375 90.851562 186.257812 125.132812 187.867188 C 159.421875 189.488281 169.414062 179.832031 169.582031 172.375 C 169.75 164.921875 163.425781 166.757812 157.335938 167.121094 Z M 162.535156 170.144531 C 161.6875 170.175781 162.671875 168.949219 162.535156 170.144531 Z M 156.242188 169.691406 C 155.042969 168.425781 156.921875 167.914062 156.242188 169.691406 Z M 151.0625 170.914062 C 151.625 170.855469 152.1875 170.796875 152.753906 170.738281 C 153.019531 171.890625 152.1875 172.160156 151.21875 172.328125 C 150.925781 171.476562 150.964844 171.804688 151.0625 170.914062 Z M 124.628906 174.164062 C 121.238281 170.617188 128.519531 172.367188 124.628906 174.164062 Z M 112.75 173.265625 C 112.246094 173.726562 112.789062 174.0625 112.117188 174.558594 C 110.832031 174.378906 112.175781 172.414062 112.75 173.265625 Z M 109.902344 170.015625 C 110.328125 170.292969 110.171875 170.65625 110.625 170.925781 C 110.398438 171.378906 109.0625 170.363281 109.902344 170.015625 Z M 100.289062 174.765625 C 100.929688 175.316406 99.359375 175.527344 100.289062 174.765625 Z M 104.527344 179.433594 C 104.519531 181.171875 102.808594 180.253906 104.527344 179.433594 Z M 109.121094 182.121094 C 108.679688 181.777344 108.222656 181.429688 107.777344 181.085938 C 108.382812 180.066406 109.171875 180.441406 109.984375 180.996094 C 109.605469 181.804688 109.804688 181.546875 109.121094 182.121094 Z M 103.628906 173.679688 L 104.457031 172.328125 C 104.714844 172.484375 130.855469 187.996094 159.34375 172.308594 L 160.113281 173.699219 C 150.300781 179.101562 140.753906 180.90625 132.394531 180.90625 C 115.761719 180.898438 103.804688 173.789062 103.628906 173.679688 Z M 154.5625 179.820312 C 154.601562 179.128906 153.988281 179.269531 154.125 178.449219 C 155.171875 177.699219 155.558594 180.039062 154.5625 179.820312 Z M 158.859375 180.214844 C 158.367188 180.304688 158.226562 179.9375 157.703125 180.058594 C 157.566406 179.5625 159.226562 179.386719 158.859375 180.214844 Z M 162.753906 182.0625 C 160.855469 182.191406 159.480469 181.667969 159.363281 179.582031 C 160.785156 180.007812 163.632812 179.78125 162.753906 182.0625 Z M 272.246094 436.746094 C 272.296875 436.855469 272.324219 436.933594 272.324219 436.933594 C 272.324219 436.933594 272.296875 436.863281 272.246094 436.746094 Z M 217.449219 125.730469 L 222.035156 131.539062 L 220.789062 132.523438 L 216.203125 126.71875 Z M 202.796875 156.726562 L 207.378906 162.53125 L 206.136719 163.519531 L 201.550781 157.714844 Z M 194.957031 128.636719 L 200.609375 133.414062 L 199.582031 134.628906 L 193.929688 129.847656 Z M 227.421875 440.546875 L 234.082031 443.765625 L 233.390625 445.195312 L 226.730469 441.976562 Z M 208.535156 415.871094 L 215.195312 419.089844 L 214.503906 420.523438 L 207.84375 417.304688 Z M 232.976562 410.925781 L 226.3125 407.707031 L 227.007812 406.273438 L 233.667969 409.492188 Z M 245.523438 429.410156 L 252.699219 431.226562 L 252.304688 432.765625 L 245.128906 430.949219 Z M 271.910156 451.890625 L 272.175781 453.460938 L 264.882812 454.714844 L 264.617188 453.144531 Z M 53.46875 125.742188 L 54.710938 126.730469 L 50.125 132.535156 L 48.882812 131.546875 Z M 68.113281 156.734375 L 69.355469 157.722656 L 64.773438 163.527344 L 63.527344 162.542969 Z M 75.949219 128.65625 L 76.976562 129.871094 L 71.324219 134.636719 L 70.296875 133.425781 Z M 75.949219 128.65625 " fill-opacity="1" fill-rule="nonzero"/><path fill="#ec6149" d="M 132.957031 253.765625 L 174.671875 209.117188 C 180.007812 206.546875 185.214844 203.707031 190.351562 200.753906 C 191.699219 211.652344 193.386719 221.359375 195.757812 229.515625 C 192.625 231.488281 189.453125 233.464844 186.359375 235.398438 C 186.351562 235.398438 186.351562 235.410156 186.339844 235.410156 C 185.582031 235.882812 184.828125 236.359375 184.078125 236.820312 C 168.136719 246.546875 151.882812 251.246094 143.710938 253.164062 L 143.699219 253.132812 L 142.929688 253.351562 C 140.015625 254.011719 138.316406 254.289062 138.316406 254.289062 C 136.585938 254.167969 134.785156 253.980469 132.957031 253.765625 Z M 220.175781 212.382812 C 230.980469 202.640625 235.78125 180.769531 237.589844 169.730469 C 232.066406 174.816406 225.21875 179.980469 216.828125 185.0625 C 216.136719 185.824219 215.445312 186.542969 214.742188 187.207031 L 214.199219 186.632812 C 207.273438 190.652344 200.363281 194.90625 193.335938 199.015625 C 194.730469 210.585938 196.429688 220.074219 198.574219 227.71875 C 207.273438 222.179688 215.363281 216.730469 220.175781 212.382812 Z M 148.265625 218.632812 C 141.992188 220.054688 135.488281 220.875 128.699219 220.914062 L 135.242188 231.5 Z M 170.808594 210.902344 C 163.820312 214.054688 156.597656 216.667969 149.066406 218.445312 L 149.886719 219.277344 L 126.632812 242.234375 L 126.355469 252.757812 C 127.917969 253.035156 129.480469 253.28125 131.023438 253.5 Z M 81.523438 208.929688 C 81.523438 208.929688 78.566406 207.59375 74.191406 204.929688 C 74.003906 206.339844 73.804688 207.734375 73.597656 209.105469 C 77.132812 218.695312 81.355469 229.210938 84.605469 234.472656 C 87.285156 238.824219 91.742188 242.359375 96.304688 245.441406 C 96.304688 245.441406 110.417969 249.816406 124.765625 252.460938 L 125.03125 242.171875 L 103.203125 217.390625 C 96.304688 215.464844 89.09375 212.710938 81.523438 208.929688 Z M 107.777344 375.332031 C 107.789062 375.351562 107.796875 375.359375 107.808594 375.378906 C 108.964844 377.589844 109.914062 379.417969 110.703125 380.917969 C 110.714844 380.929688 110.722656 380.949219 110.722656 380.96875 L 111.039062 348.414062 L 110.824219 348.375 Z M 126.832031 220.90625 C 120.179688 220.796875 113.242188 219.925781 105.96875 218.109375 L 125.882812 240.722656 L 134.074219 232.636719 Z M 83.714844 299.324219 C 83.714844 299.332031 83.714844 299.34375 83.726562 299.351562 C 84.804688 304.832031 85.898438 310.203125 87.015625 315.378906 C 87.015625 315.386719 87.015625 315.386719 87.015625 315.398438 C 87.285156 316.652344 87.558594 317.90625 87.835938 319.128906 C 87.847656 319.199219 87.867188 319.257812 87.875 319.328125 C 88.144531 320.550781 88.421875 321.765625 88.695312 322.96875 C 88.695312 322.980469 88.707031 323 88.707031 323.007812 C 89.546875 326.710938 90.394531 330.277344 91.246094 333.652344 C 91.246094 333.671875 91.257812 333.691406 91.257812 333.710938 C 91.53125 334.796875 91.800781 335.855469 92.078125 336.902344 C 92.097656 336.960938 92.105469 337.03125 92.125 337.089844 C 93.253906 341.382812 94.378906 345.324219 95.484375 348.820312 C 95.496094 348.859375 95.503906 348.886719 95.515625 348.929688 C 95.78125 349.746094 96.039062 350.546875 96.304688 351.316406 C 96.324219 351.375 96.34375 351.4375 96.363281 351.503906 C 96.632812 352.296875 96.910156 353.066406 97.175781 353.804688 C 99.683594 337.257812 102.292969 319.652344 103.972656 307.328125 C 99.792969 306.609375 95.988281 305.5625 93.144531 304.042969 C 90.425781 302.925781 87.175781 301.386719 83.714844 299.324219 Z M 271.011719 382.960938 C 271 382.960938 271 382.972656 270.992188 382.972656 C 270.972656 382.984375 270.953125 382.992188 270.921875 383.003906 C 270.902344 383.011719 270.871094 383.023438 270.84375 383.03125 C 270.746094 383.070312 270.597656 383.128906 270.359375 383.230469 C 270.359375 383.230469 270.347656 383.238281 270.339844 383.238281 C 270.179688 383.296875 269.984375 383.378906 269.746094 383.476562 C 269.46875 383.585938 269.125 383.734375 268.699219 383.902344 C 268.402344 384.019531 268.085938 384.15625 267.710938 384.304688 C 267.640625 384.335938 267.582031 384.355469 267.511719 384.382812 C 267.214844 384.503906 266.890625 384.640625 266.542969 384.78125 C 266.367188 384.847656 266.179688 384.929688 265.992188 385.007812 C 265.28125 385.292969 264.480469 385.617188 263.558594 385.992188 C 263.222656 386.132812 262.867188 386.269531 262.503906 386.417969 C 261.5625 386.804688 260.515625 387.226562 259.359375 387.691406 C 258.558594 388.007812 257.71875 388.355469 256.808594 388.71875 C 256.316406 388.917969 255.792969 389.125 255.269531 389.339844 C 255.0625 389.421875 254.863281 389.5 254.644531 389.589844 C 249.203125 391.800781 241.949219 394.730469 232.273438 398.652344 L 232.957031 398.265625 L 200.800781 341.53125 L 199.414062 342.3125 L 231.511719 398.949219 C 214.890625 405.367188 191.183594 404.347656 169.433594 401.0625 L 169.421875 401.0625 C 162.230469 399.976562 155.261719 398.640625 148.828125 397.25 C 148.820312 397.242188 148.808594 397.242188 148.800781 397.242188 C 146.082031 396.65625 143.453125 396.054688 140.941406 395.453125 C 140.863281 395.441406 140.796875 395.421875 140.714844 395.402344 C 139.996094 395.234375 139.292969 395.058594 138.589844 394.890625 C 138.460938 394.851562 138.335938 394.820312 138.207031 394.792969 C 137.484375 394.613281 136.773438 394.4375 136.082031 394.257812 C 136.042969 394.238281 135.992188 394.230469 135.941406 394.21875 C 135.203125 394.03125 134.46875 393.84375 133.75 393.65625 C 133.628906 393.625 133.511719 393.597656 133.394531 393.566406 C 132.828125 393.417969 132.277344 393.28125 131.734375 393.132812 C 131.527344 393.074219 131.316406 393.023438 131.109375 392.964844 C 130.664062 392.847656 130.230469 392.726562 129.796875 392.609375 C 129.589844 392.558594 129.371094 392.5 129.164062 392.441406 C 128.5625 392.273438 127.96875 392.117188 127.394531 391.957031 C 127.386719 391.957031 127.386719 391.957031 127.386719 391.957031 L 127.710938 309.019531 C 133.421875 309.117188 140.902344 308.96875 148.710938 308.710938 L 149.5 308.8125 C 149.5 308.773438 149.5 308.722656 149.511719 308.683594 C 169.226562 308.011719 190.660156 306.660156 190.660156 306.660156 L 190.789062 306.324219 C 203.664062 305.484375 230.347656 289.101562 241.574219 272.417969 C 243.894531 312.238281 264.6875 367.015625 269.84375 380.070312 C 269.933594 380.289062 270.011719 380.496094 270.09375 380.691406 C 270.101562 380.703125 270.101562 380.722656 270.113281 380.742188 C 270.191406 380.929688 270.261719 381.117188 270.328125 381.285156 C 270.328125 381.292969 270.339844 381.304688 270.339844 381.3125 C 270.398438 381.460938 270.457031 381.609375 270.507812 381.738281 C 270.515625 381.777344 270.535156 381.808594 270.546875 381.847656 C 270.714844 382.253906 270.84375 382.558594 270.914062 382.734375 C 270.921875 382.753906 270.933594 382.773438 270.941406 382.796875 C 270.972656 382.882812 271.011719 382.960938 271.011719 382.960938 Z M 154.046875 372.8125 L 143.394531 308.890625 L 141.824219 309.148438 L 152.476562 373.070312 Z M 195.15625 332.914062 L 184.910156 312.199219 L 183.484375 312.898438 L 193.734375 333.613281 Z M 195.15625 332.914062 " fill-opacity="1" fill-rule="nonzero"/><path fill="#f1cd4f" d="M 242.472656 271.015625 C 242.195312 271.46875 241.886719 271.933594 241.582031 272.386719 C 230.355469 289.082031 203.675781 305.453125 190.796875 306.292969 L 190.667969 306.628906 C 190.667969 306.628906 169.234375 307.980469 149.519531 308.652344 C 152.394531 285.152344 143.9375 254.011719 143.710938 253.171875 C 151.882812 251.257812 168.136719 246.558594 184.078125 236.832031 C 184.828125 236.367188 185.582031 235.894531 186.339844 235.417969 C 186.351562 235.417969 186.351562 235.410156 186.359375 235.410156 C 189.453125 233.484375 192.625 231.5 195.757812 229.523438 C 200.570312 246.054688 208.21875 256.253906 221.621094 257.210938 L 221.847656 254.042969 C 210.808594 253.25 203.535156 245.441406 198.585938 227.726562 C 207.273438 222.179688 215.375 216.738281 220.1875 212.394531 C 230.988281 202.660156 235.792969 180.777344 237.601562 169.738281 C 239.191406 168.269531 240.671875 166.808594 242.054688 165.355469 C 243.863281 167.992188 245.484375 172.742188 246.898438 178.792969 C 246.910156 178.804688 246.910156 178.8125 246.910156 178.824219 C 247.078125 179.5625 247.246094 180.324219 247.414062 181.09375 C 247.421875 181.144531 247.433594 181.191406 247.441406 181.242188 C 247.609375 181.984375 247.757812 182.742188 247.917969 183.523438 C 247.925781 183.554688 247.925781 183.582031 247.9375 183.613281 C 248.09375 184.390625 248.242188 185.191406 248.390625 186 C 248.410156 186.109375 248.429688 186.230469 248.449219 186.347656 C 248.589844 187.117188 248.71875 187.898438 248.855469 188.6875 C 248.863281 188.726562 248.863281 188.765625 248.875 188.804688 C 249.011719 189.617188 249.152344 190.445312 249.28125 191.273438 C 249.308594 191.441406 249.328125 191.609375 249.359375 191.789062 C 249.476562 192.578125 249.597656 193.367188 249.714844 194.167969 C 249.714844 194.214844 249.726562 194.265625 249.734375 194.316406 C 249.851562 195.15625 249.972656 196.003906 250.089844 196.851562 C 250.121094 197.050781 250.140625 197.257812 250.167969 197.453125 C 250.289062 198.3125 250.398438 199.171875 250.503906 200.042969 C 253.074219 220.5 254.203125 252.117188 242.472656 271.015625 Z M 71.234375 203.0625 C 68.914062 201.542969 66.34375 199.726562 63.675781 197.601562 C 62.292969 201.96875 60.613281 207.714844 59.050781 214.199219 C 59.039062 214.25 59.019531 214.308594 59.011719 214.359375 C 58.773438 215.375 58.527344 216.402344 58.300781 217.449219 C 58.269531 217.558594 58.25 217.675781 58.21875 217.796875 C 58.003906 218.78125 57.785156 219.789062 57.578125 220.804688 C 57.546875 220.953125 57.519531 221.113281 57.488281 221.261719 C 57.292969 222.246094 57.09375 223.246094 56.90625 224.261719 C 56.875 224.429688 56.847656 224.597656 56.816406 224.777344 C 56.628906 225.773438 56.453125 226.78125 56.285156 227.796875 C 56.253906 227.976562 56.222656 228.152344 56.195312 228.332031 C 56.027344 229.347656 55.867188 230.363281 55.71875 231.390625 C 55.691406 231.570312 55.671875 231.738281 55.652344 231.914062 C 55.503906 232.949219 55.363281 233.988281 55.246094 235.035156 C 55.226562 235.203125 55.207031 235.359375 55.1875 235.527344 C 55.066406 236.585938 54.949219 237.640625 54.851562 238.699219 C 54.839844 238.847656 54.820312 238.992188 54.8125 239.140625 C 54.710938 240.226562 54.632812 241.304688 54.5625 242.390625 C 54.554688 242.507812 54.542969 242.628906 54.542969 242.753906 C 54.476562 243.882812 54.425781 245.007812 54.394531 246.121094 C 54.394531 246.191406 54.386719 246.269531 54.386719 246.339844 C 54.355469 247.523438 54.347656 248.710938 54.355469 249.875 C 62.6875 243.296875 67.835938 228.664062 71.234375 203.0625 Z M 142.160156 253.558594 L 142.917969 253.351562 C 140.003906 254.011719 138.304688 254.289062 138.304688 254.289062 C 136.585938 254.167969 134.785156 253.992188 132.949219 253.753906 C 132.304688 253.675781 131.664062 253.585938 131.023438 253.5 C 129.480469 253.28125 127.917969 253.035156 126.355469 252.757812 C 125.832031 252.667969 125.300781 252.570312 124.777344 252.472656 C 110.425781 249.824219 96.316406 245.453125 96.316406 245.453125 C 91.75 242.371094 87.292969 238.835938 84.617188 234.480469 C 81.363281 229.210938 77.144531 218.703125 73.605469 209.117188 C 70.316406 230.917969 65.058594 246.875 54.476562 253.65625 C 54.496094 253.960938 54.523438 254.257812 54.542969 254.554688 C 54.59375 255.226562 54.644531 255.898438 54.710938 256.570312 C 54.75 256.953125 54.792969 257.328125 54.839844 257.714844 C 54.910156 258.328125 54.988281 258.929688 55.078125 259.519531 C 55.128906 259.867188 55.175781 260.210938 55.226562 260.558594 C 55.375 261.457031 55.53125 262.34375 55.71875 263.222656 C 55.75 263.363281 55.789062 263.5 55.820312 263.640625 C 55.988281 264.398438 56.175781 265.148438 56.382812 265.890625 C 56.460938 266.175781 56.550781 266.453125 56.628906 266.730469 C 56.816406 267.339844 57.015625 267.953125 57.222656 268.546875 C 57.3125 268.800781 57.398438 269.058594 57.5 269.316406 C 57.804688 270.136719 58.132812 270.945312 58.496094 271.726562 C 59 272.800781 59.523438 273.847656 60.066406 274.863281 C 60.214844 275.152344 60.375 275.429688 60.53125 275.714844 C 60.96875 276.503906 61.421875 277.273438 61.875 278.023438 C 62.015625 278.25 62.144531 278.480469 62.28125 278.695312 C 62.863281 279.613281 63.457031 280.511719 64.070312 281.371094 C 64.21875 281.589844 64.375 281.796875 64.535156 282.003906 C 65.019531 282.664062 65.503906 283.308594 65.996094 283.9375 C 66.203125 284.207031 66.414062 284.460938 66.621094 284.71875 C 67.171875 285.390625 67.726562 286.050781 68.300781 286.683594 C 68.457031 286.863281 68.617188 287.039062 68.773438 287.21875 C 69.359375 287.859375 69.949219 288.472656 70.542969 289.074219 C 70.820312 289.351562 71.097656 289.625 71.382812 289.902344 C 71.789062 290.296875 72.203125 290.691406 72.617188 291.066406 C 72.914062 291.34375 73.210938 291.621094 73.507812 291.886719 C 74.109375 292.421875 74.703125 292.933594 75.304688 293.429688 C 75.691406 293.753906 76.085938 294.050781 76.480469 294.367188 C 76.757812 294.582031 77.027344 294.800781 77.300781 295.007812 C 77.738281 295.332031 78.164062 295.660156 78.597656 295.964844 C 78.753906 296.082031 78.921875 296.191406 79.082031 296.3125 C 80.652344 297.425781 82.222656 298.445312 83.734375 299.351562 C 87.195312 301.40625 90.445312 302.957031 93.164062 304.050781 C 96.007812 305.5625 99.8125 306.609375 103.992188 307.339844 C 108.332031 308.089844 113.066406 308.484375 117.570312 308.671875 C 118.117188 308.691406 118.648438 308.710938 119.183594 308.730469 C 120.132812 308.761719 121.070312 308.78125 121.980469 308.800781 C 123.582031 308.917969 125.527344 308.988281 127.742188 309.027344 C 133.453125 309.128906 140.933594 308.980469 148.738281 308.722656 L 147.960938 308.625 C 150.835938 285.171875 142.246094 253.875 142.160156 253.558594 Z M 142.160156 253.558594 " fill-opacity="1" fill-rule="nonzero"/><g clip-path="url(#33b6971c9c)"><path fill="#26425f" d="M 147.742188 158.660156 C 146.46875 158.660156 145.429688 157.625 145.429688 156.351562 C 145.429688 155.078125 146.46875 154.039062 147.742188 154.039062 C 149.015625 154.039062 150.054688 155.078125 150.054688 156.351562 C 150.054688 157.625 149.015625 158.660156 147.742188 158.660156 Z M 119.152344 308.703125 C 118.621094 308.683594 118.085938 308.664062 117.542969 308.644531 C 113.035156 308.457031 108.300781 308.0625 103.964844 307.308594 C 102.285156 319.632812 99.675781 337.246094 97.164062 353.785156 C 97.15625 353.84375 97.144531 353.894531 97.136719 353.953125 C 96.9375 355.277344 96.730469 356.601562 96.53125 357.902344 C 96.492188 358.148438 96.464844 358.386719 96.425781 358.632812 C 95.890625 362.128906 95.367188 365.546875 94.863281 368.824219 C 94.851562 368.921875 94.832031 369.019531 94.824219 369.109375 C 94.339844 372.28125 93.875 375.300781 93.429688 378.144531 C 93.054688 380.5625 92.699219 382.84375 92.371094 384.957031 C 92.234375 385.867188 92.097656 386.746094 91.96875 387.574219 C 91.859375 388.292969 91.75 388.996094 91.640625 389.667969 C 91.511719 390.515625 91.382812 391.316406 91.265625 392.078125 C 91.234375 392.292969 91.195312 392.5 91.167969 392.707031 C 90.792969 395.097656 90.503906 396.933594 90.328125 398.097656 C 90.277344 398.414062 90.238281 398.671875 90.207031 398.890625 C 90.167969 399.117188 90.148438 399.285156 90.128906 399.394531 C 90.121094 399.480469 90.109375 399.53125 90.109375 399.53125 L 104.539062 403.886719 L 107.757812 375.339844 L 110.804688 348.375 L 110.308594 348.316406 L 114.824219 309 L 115.804688 309.105469 L 111.285156 348.425781 L 110.804688 348.367188 L 111.011719 348.40625 L 110.695312 380.957031 L 110.515625 399.609375 L 127.335938 399.6875 L 127.363281 391.917969 L 127.691406 308.980469 C 125.488281 308.9375 123.53125 308.871094 121.929688 308.75 C 121.039062 308.75 120.101562 308.730469 119.152344 308.703125 Z M 119.945312 156.351562 C 119.945312 155.078125 118.90625 154.039062 117.632812 154.039062 C 116.355469 154.039062 115.320312 155.078125 115.320312 156.351562 C 115.320312 157.625 116.355469 158.660156 117.632812 158.660156 C 118.90625 158.660156 119.945312 157.625 119.945312 156.351562 Z M 141.8125 309.148438 L 152.464844 373.070312 L 154.035156 372.8125 L 143.382812 308.890625 Z M 109.84375 155.34375 C 109.507812 155.351562 76.503906 156.921875 72.074219 196.210938 C 71.808594 198.582031 71.53125 200.851562 71.234375 203.054688 C 67.84375 228.65625 62.6875 243.289062 54.347656 249.855469 C 53.152344 250.792969 51.894531 251.574219 50.570312 252.183594 C 50.5625 252.195312 50.542969 252.195312 50.53125 252.203125 C 50.117188 252.402344 49.691406 252.570312 49.257812 252.738281 C 49.226562 252.746094 49.1875 252.769531 49.160156 252.777344 C 48.753906 252.925781 48.339844 253.0625 47.914062 253.183594 C 47.855469 253.203125 47.792969 253.222656 47.734375 253.242188 C 47.339844 253.351562 46.933594 253.449219 46.53125 253.539062 C 46.441406 253.558594 46.363281 253.578125 46.273438 253.597656 C 45.878906 253.675781 45.480469 253.746094 45.078125 253.804688 C 44.976562 253.824219 44.871094 253.84375 44.769531 253.855469 C 44.265625 253.921875 43.753906 253.972656 43.238281 254.011719 L 43.464844 257.179688 C 44.425781 257.113281 45.34375 256.984375 46.234375 256.816406 C 46.390625 256.785156 46.550781 256.765625 46.699219 256.726562 C 47.597656 256.550781 48.464844 256.332031 49.308594 256.054688 C 49.355469 256.046875 49.394531 256.027344 49.445312 256.007812 C 51.242188 255.414062 52.914062 254.613281 54.464844 253.617188 C 65.050781 246.824219 70.304688 230.878906 73.597656 209.078125 C 73.804688 207.714844 74.003906 206.3125 74.191406 204.898438 C 74.554688 202.195312 74.902344 199.410156 75.226562 196.546875 C 79.347656 160.042969 108.699219 158.542969 109.953125 158.492188 Z M 103.214844 217.390625 L 125.042969 242.171875 L 124.777344 252.460938 C 125.300781 252.558594 125.832031 252.660156 126.355469 252.746094 L 126.632812 242.222656 L 149.886719 219.265625 L 149.066406 218.4375 C 148.800781 218.496094 148.53125 218.566406 148.265625 218.625 L 135.242188 231.488281 L 128.699219 220.90625 C 128.078125 220.90625 127.453125 220.914062 126.832031 220.90625 L 134.085938 232.636719 L 125.894531 240.722656 L 105.980469 218.109375 C 105.0625 217.894531 104.140625 217.648438 103.214844 217.390625 Z M 100.722656 142.054688 C 103.65625 139.121094 103.65625 134.371094 100.722656 131.4375 C 97.789062 128.507812 93.035156 128.507812 90.101562 131.4375 C 87.164062 134.371094 87.164062 139.121094 90.101562 142.054688 C 93.035156 144.976562 97.796875 144.976562 100.722656 142.054688 Z M 191.589844 58.285156 C 191.738281 58.207031 191.894531 58.117188 192.042969 58.039062 C 191.984375 58.027344 191.925781 58.027344 191.867188 58.019531 C 191.746094 58.007812 191.628906 58 191.5 57.980469 C 191.292969 57.269531 191.09375 56.546875 190.878906 55.824219 C 190.867188 55.785156 190.859375 55.746094 190.847656 55.707031 C 190.640625 54.996094 190.441406 54.285156 190.226562 53.574219 C 190.214844 53.546875 190.207031 53.527344 190.207031 53.496094 C 189.554688 51.265625 188.882812 48.992188 188.1875 46.734375 C 188.179688 46.691406 188.167969 46.652344 188.148438 46.613281 C 187.941406 45.933594 187.734375 45.261719 187.527344 44.578125 C 187.488281 44.441406 187.4375 44.304688 187.398438 44.15625 C 187.222656 43.5625 187.03125 42.980469 186.84375 42.386719 C 186.796875 42.21875 186.746094 42.0625 186.6875 41.894531 C 186.5 41.300781 186.3125 40.71875 186.125 40.125 C 186.085938 39.988281 186.035156 39.859375 185.996094 39.722656 C 185.777344 39.050781 185.5625 38.390625 185.351562 37.71875 C 185.332031 37.667969 185.3125 37.609375 185.304688 37.558594 C 185.066406 36.820312 184.820312 36.089844 184.582031 35.359375 C 184.574219 35.339844 184.574219 35.320312 184.5625 35.296875 C 184.335938 34.628906 184.117188 33.964844 183.890625 33.292969 C 183.832031 33.117188 183.773438 32.9375 183.703125 32.761719 C 183.523438 32.246094 183.355469 31.742188 183.179688 31.242188 C 183.109375 31.03125 183.03125 30.824219 182.960938 30.617188 C 182.792969 30.144531 182.625 29.671875 182.457031 29.195312 C 182.378906 28.988281 182.308594 28.773438 182.230469 28.566406 C 182.0625 28.082031 181.882812 27.605469 181.714844 27.132812 C 181.648438 26.957031 181.589844 26.769531 181.519531 26.589844 C 181.28125 25.957031 181.054688 25.324219 180.816406 24.703125 C 180.816406 24.695312 180.808594 24.683594 180.808594 24.675781 C 180.570312 24.042969 180.324219 23.410156 180.085938 22.789062 C 180.027344 22.628906 179.96875 22.472656 179.898438 22.316406 C 179.71875 21.871094 179.550781 21.425781 179.375 20.980469 C 179.296875 20.773438 179.207031 20.578125 179.128906 20.378906 C 178.96875 19.996094 178.8125 19.609375 178.664062 19.234375 C 178.574219 19.027344 178.496094 18.820312 178.40625 18.613281 C 178.246094 18.246094 178.101562 17.882812 177.941406 17.515625 C 177.851562 17.320312 177.773438 17.121094 177.683594 16.933594 C 177.515625 16.546875 177.347656 16.183594 177.191406 15.808594 C 177.121094 15.648438 177.050781 15.492188 176.984375 15.34375 C 176.746094 14.832031 176.519531 14.328125 176.28125 13.84375 C 176.25 13.773438 176.222656 13.714844 176.191406 13.65625 C 175.996094 13.242188 175.796875 12.824219 175.589844 12.429688 C 175.511719 12.273438 175.429688 12.125 175.351562 11.96875 C 175.203125 11.671875 175.046875 11.375 174.898438 11.089844 C 174.808594 10.921875 174.71875 10.761719 174.640625 10.605469 C 174.492188 10.335938 174.355469 10.082031 174.207031 9.824219 C 174.117188 9.667969 174.027344 9.519531 173.949219 9.371094 C 173.800781 9.113281 173.652344 8.875 173.503906 8.628906 C 173.425781 8.5 173.347656 8.371094 173.265625 8.246094 C 173.089844 7.96875 172.921875 7.703125 172.742188 7.445312 C 172.695312 7.375 172.644531 7.296875 172.59375 7.21875 C 172.378906 6.902344 172.160156 6.59375 171.941406 6.320312 C 171.882812 6.238281 171.824219 6.171875 171.765625 6.101562 C 171.605469 5.90625 171.449219 5.707031 171.289062 5.53125 C 171.210938 5.441406 171.132812 5.363281 171.054688 5.273438 C 170.914062 5.125 170.777344 4.984375 170.648438 4.847656 C 170.570312 4.769531 170.492188 4.691406 170.402344 4.621094 C 170.273438 4.503906 170.136719 4.394531 170.007812 4.285156 C 169.925781 4.226562 169.847656 4.15625 169.769531 4.109375 C 169.628906 4.007812 169.492188 3.917969 169.355469 3.839844 C 169.285156 3.800781 169.226562 3.761719 169.15625 3.722656 C 168.957031 3.613281 168.761719 3.535156 168.5625 3.476562 C 157.148438 0.0117188 113.996094 1.984375 104.585938 3.476562 C 104.417969 3.503906 104.242188 3.5625 104.0625 3.632812 C 104.003906 3.652344 103.953125 3.691406 103.894531 3.710938 C 103.765625 3.773438 103.636719 3.851562 103.511719 3.929688 C 103.441406 3.96875 103.382812 4.019531 103.3125 4.066406 C 103.175781 4.167969 103.046875 4.273438 102.90625 4.394531 C 102.847656 4.441406 102.789062 4.492188 102.730469 4.550781 C 102.53125 4.730469 102.332031 4.925781 102.125 5.152344 C 102.117188 5.164062 102.097656 5.183594 102.085938 5.195312 C 101.890625 5.402344 101.691406 5.636719 101.492188 5.886719 C 101.425781 5.972656 101.355469 6.0625 101.285156 6.152344 C 101.136719 6.339844 100.980469 6.546875 100.832031 6.753906 C 100.753906 6.863281 100.671875 6.960938 100.605469 7.078125 C 100.445312 7.304688 100.289062 7.535156 100.128906 7.78125 C 100.0625 7.890625 99.992188 7.988281 99.921875 8.097656 C 99.695312 8.441406 99.46875 8.808594 99.230469 9.191406 C 99.203125 9.242188 99.171875 9.292969 99.140625 9.339844 C 98.933594 9.6875 98.726562 10.042969 98.507812 10.40625 C 98.429688 10.546875 98.351562 10.691406 98.273438 10.832031 C 98.105469 11.128906 97.9375 11.425781 97.769531 11.730469 C 97.679688 11.886719 97.589844 12.054688 97.5 12.214844 C 97.324219 12.539062 97.144531 12.875 96.976562 13.210938 C 96.898438 13.359375 96.828125 13.496094 96.75 13.644531 C 96.503906 14.128906 96.246094 14.621094 95.988281 15.136719 C 95.949219 15.207031 95.921875 15.285156 95.882812 15.355469 C 95.664062 15.796875 95.4375 16.261719 95.207031 16.726562 C 95.121094 16.902344 95.03125 17.089844 94.953125 17.269531 C 94.773438 17.644531 94.597656 18.019531 94.417969 18.40625 C 94.320312 18.601562 94.230469 18.808594 94.132812 19.015625 C 93.945312 19.421875 93.757812 19.847656 93.558594 20.261719 C 93.480469 20.429688 93.410156 20.585938 93.332031 20.753906 C 93.066406 21.347656 92.796875 21.941406 92.53125 22.550781 C 92.492188 22.648438 92.441406 22.75 92.402344 22.847656 C 92.175781 23.371094 91.949219 23.894531 91.71875 24.425781 C 91.632812 24.636719 91.542969 24.832031 91.453125 25.039062 C 91.265625 25.484375 91.078125 25.917969 90.890625 26.371094 C 90.800781 26.589844 90.703125 26.808594 90.613281 27.023438 C 90.40625 27.507812 90.207031 28 90 28.503906 C 89.933594 28.671875 89.863281 28.832031 89.792969 29 C 89.515625 29.660156 89.25 30.332031 88.972656 31.011719 C 88.933594 31.121094 88.894531 31.222656 88.84375 31.328125 C 88.609375 31.910156 88.378906 32.484375 88.144531 33.078125 C 88.0625 33.273438 87.984375 33.480469 87.90625 33.679688 C 87.707031 34.183594 87.511719 34.675781 87.3125 35.179688 C 87.234375 35.398438 87.144531 35.605469 87.066406 35.820312 C 86.847656 36.375 86.632812 36.9375 86.414062 37.5 C 86.363281 37.640625 86.304688 37.777344 86.253906 37.914062 C 85.980469 38.625 85.703125 39.347656 85.4375 40.066406 C 85.40625 40.15625 85.367188 40.246094 85.335938 40.335938 C 85.097656 40.945312 84.871094 41.570312 84.636719 42.179688 C 84.554688 42.378906 84.488281 42.585938 84.40625 42.78125 C 84.210938 43.304688 84.011719 43.839844 83.816406 44.363281 C 83.734375 44.570312 83.667969 44.765625 83.585938 44.976562 C 83.371094 45.558594 83.164062 46.140625 82.945312 46.710938 C 82.894531 46.839844 82.855469 46.96875 82.808594 47.085938 C 82.539062 47.808594 82.28125 48.539062 82.015625 49.25 C 81.996094 49.308594 81.976562 49.367188 81.945312 49.4375 C 81.710938 50.078125 81.484375 50.722656 81.253906 51.351562 C 81.195312 51.519531 81.136719 51.699219 81.066406 51.867188 C 80.871094 52.417969 80.671875 52.984375 80.476562 53.527344 C 80.425781 53.671875 80.367188 53.820312 80.316406 53.980469 C 80.078125 54.640625 79.851562 55.304688 79.613281 55.953125 C 79.605469 55.972656 79.605469 55.992188 79.59375 56.015625 C 79.339844 56.734375 79.089844 57.445312 78.84375 58.15625 L 78.84375 58.167969 L 79.328125 57.535156 C 79.851562 57.910156 127.007812 93.574219 191.589844 58.285156 Z M 199.414062 342.28125 L 231.511719 398.917969 L 231.570312 399.015625 L 232.261719 398.621094 L 232.957031 398.238281 L 200.796875 341.503906 Z M 174.472656 144.027344 C 178.503906 143.082031 181.003906 139.03125 180.054688 135.003906 C 179.109375 130.976562 175.054688 128.476562 171.023438 129.425781 C 166.992188 130.371094 164.492188 134.421875 165.441406 138.449219 C 166.398438 142.488281 170.441406 144.984375 174.472656 144.027344 Z M 271.890625 83.640625 C 271.871094 83.503906 271.832031 83.375 271.800781 83.246094 C 271.710938 82.898438 271.585938 82.554688 271.4375 82.207031 C 271.386719 82.089844 271.347656 81.972656 271.289062 81.863281 C 271.070312 81.429688 270.824219 80.984375 270.527344 80.550781 C 270.46875 80.460938 270.386719 80.371094 270.320312 80.285156 C 270.0625 79.929688 269.777344 79.582031 269.460938 79.238281 C 269.332031 79.097656 269.203125 78.960938 269.074219 78.832031 C 268.746094 78.496094 268.390625 78.160156 268.015625 77.835938 C 267.90625 77.734375 267.808594 77.636719 267.691406 77.539062 C 267.207031 77.132812 266.671875 76.730469 266.109375 76.324219 C 265.921875 76.195312 265.722656 76.058594 265.527344 75.929688 C 265.101562 75.644531 264.667969 75.367188 264.210938 75.078125 C 263.976562 74.933594 263.738281 74.785156 263.492188 74.644531 C 262.925781 74.320312 262.34375 73.992188 261.742188 73.679688 C 261.476562 73.539062 261.207031 73.402344 260.941406 73.261719 C 260.339844 72.957031 259.714844 72.660156 259.074219 72.363281 C 258.726562 72.207031 258.363281 72.046875 258.007812 71.890625 C 257.492188 71.664062 256.96875 71.445312 256.433594 71.21875 C 256.050781 71.0625 255.664062 70.902344 255.269531 70.746094 C 254.4375 70.417969 253.578125 70.09375 252.691406 69.769531 C 252.234375 69.601562 251.761719 69.441406 251.296875 69.285156 C 250.753906 69.097656 250.21875 68.910156 249.65625 68.730469 C 249.113281 68.554688 248.558594 68.375 247.996094 68.199219 C 247.480469 68.03125 246.949219 67.871094 246.414062 67.714844 C 245.40625 67.40625 244.367188 67.113281 243.3125 66.816406 C 242.777344 66.667969 242.246094 66.507812 241.691406 66.371094 C 240.980469 66.183594 240.25 65.996094 239.527344 65.808594 C 239.0625 65.691406 238.589844 65.570312 238.113281 65.453125 C 237.34375 65.265625 236.5625 65.078125 235.773438 64.890625 C 235.40625 64.800781 235.03125 64.722656 234.664062 64.632812 C 232.996094 64.25 231.296875 63.882812 229.535156 63.519531 C 229.257812 63.457031 228.984375 63.398438 228.707031 63.339844 C 227.757812 63.152344 226.789062 62.953125 225.808594 62.777344 C 225.445312 62.707031 225.078125 62.640625 224.714844 62.570312 C 221.472656 61.96875 218.113281 61.394531 214.613281 60.851562 C 214.367188 60.8125 214.128906 60.773438 213.882812 60.742188 C 212.726562 60.566406 211.558594 60.398438 210.375 60.230469 C 210.15625 60.199219 209.929688 60.171875 209.710938 60.140625 C 206.007812 59.617188 202.171875 59.132812 198.230469 58.699219 C 197.960938 58.667969 197.6875 58.640625 197.417969 58.609375 C 196.113281 58.460938 194.800781 58.324219 193.464844 58.195312 L 193.851562 58.886719 C 193.25 59.222656 192.644531 59.539062 192.042969 59.863281 C 170.570312 71.523438 150.992188 75.476562 134.371094 75.476562 C 102.046875 75.476562 80.898438 60.644531 78.625 58.976562 C 78.507812 58.886719 78.429688 58.828125 78.410156 58.816406 L 78.894531 58.195312 C 78.894531 58.195312 78.894531 58.195312 78.882812 58.195312 C 77.570312 58.335938 76.265625 58.472656 74.96875 58.609375 C 74.683594 58.640625 74.398438 58.679688 74.101562 58.710938 C 70.175781 59.152344 66.375 59.628906 62.675781 60.152344 C 62.441406 60.179688 62.203125 60.21875 61.964844 60.25 C 60.800781 60.417969 59.644531 60.585938 58.496094 60.761719 C 58.21875 60.800781 57.953125 60.851562 57.6875 60.890625 C 54.226562 61.425781 50.886719 61.996094 47.675781 62.597656 C 47.300781 62.667969 46.914062 62.738281 46.550781 62.816406 C 45.582031 63.003906 44.621094 63.191406 43.683594 63.378906 C 43.378906 63.4375 43.082031 63.507812 42.773438 63.566406 C 41.054688 63.921875 39.386719 64.289062 37.753906 64.652344 C 37.371094 64.742188 36.972656 64.832031 36.589844 64.917969 C 35.796875 65.109375 35.035156 65.296875 34.265625 65.484375 C 33.78125 65.601562 33.308594 65.71875 32.832031 65.847656 C 32.113281 66.035156 31.378906 66.214844 30.679688 66.402344 C 30.117188 66.550781 29.570312 66.707031 29.019531 66.863281 C 27.980469 67.152344 26.964844 67.449219 25.976562 67.742188 C 25.433594 67.902344 24.898438 68.070312 24.375 68.238281 C 23.820312 68.414062 23.265625 68.59375 22.734375 68.769531 C 22.171875 68.957031 21.628906 69.144531 21.082031 69.332031 C 20.617188 69.492188 20.144531 69.648438 19.699219 69.816406 C 18.8125 70.144531 17.949219 70.46875 17.109375 70.792969 C 16.714844 70.953125 16.339844 71.109375 15.953125 71.269531 C 15.421875 71.484375 14.886719 71.714844 14.375 71.941406 C 14.019531 72.097656 13.652344 72.257812 13.304688 72.414062 C 12.664062 72.710938 12.042969 73.015625 11.4375 73.3125 C 11.171875 73.449219 10.90625 73.578125 10.648438 73.71875 C 10.027344 73.992188 9.441406 74.320312 8.878906 74.644531 C 8.632812 74.792969 8.394531 74.933594 8.15625 75.078125 C 7.691406 75.367188 7.257812 75.644531 6.832031 75.929688 C 6.644531 76.058594 6.4375 76.1875 6.261719 76.324219 C 5.695312 76.730469 5.164062 77.132812 4.679688 77.539062 C 4.5625 77.636719 4.460938 77.734375 4.351562 77.835938 C 3.976562 78.171875 3.621094 78.496094 3.296875 78.832031 C 3.167969 78.96875 3.039062 79.109375 2.910156 79.238281 C 2.59375 79.582031 2.308594 79.9375 2.050781 80.285156 C 1.980469 80.371094 1.914062 80.460938 1.84375 80.550781 C 1.546875 80.984375 1.289062 81.417969 1.082031 81.863281 C 1.023438 81.980469 0.984375 82.101562 0.933594 82.207031 C 0.785156 82.554688 0.667969 82.898438 0.566406 83.246094 C 0.527344 83.375 0.5 83.503906 0.46875 83.628906 C 0.371094 84.085938 0.3125 84.539062 0.3125 85.003906 C 0.3125 85.46875 0.371094 85.921875 0.46875 86.375 C 0.5 86.515625 0.539062 86.652344 0.578125 86.789062 C 0.667969 87.117188 0.785156 87.441406 0.925781 87.769531 C 0.984375 87.914062 1.042969 88.054688 1.113281 88.203125 C 1.300781 88.585938 1.527344 88.960938 1.773438 89.335938 C 1.824219 89.40625 1.851562 89.476562 1.902344 89.535156 C 2.207031 89.960938 2.566406 90.382812 2.949219 90.808594 C 3.089844 90.957031 3.246094 91.113281 3.394531 91.261719 C 3.671875 91.539062 3.96875 91.824219 4.285156 92.101562 C 4.472656 92.269531 4.667969 92.4375 4.867188 92.605469 C 5.210938 92.890625 5.589844 93.179688 5.972656 93.453125 C 6.160156 93.59375 6.339844 93.730469 6.535156 93.871094 C 7.089844 94.253906 7.683594 94.628906 8.304688 95.003906 C 8.601562 95.183594 8.929688 95.359375 9.246094 95.546875 C 9.628906 95.765625 10.015625 95.984375 10.421875 96.199219 C 10.785156 96.398438 11.160156 96.585938 11.539062 96.78125 C 11.941406 96.980469 12.359375 97.1875 12.78125 97.382812 C 13.277344 97.613281 13.761719 97.847656 14.273438 98.074219 C 14.9375 98.371094 15.609375 98.660156 16.320312 98.945312 C 16.824219 99.152344 17.347656 99.347656 17.871094 99.546875 C 18.296875 99.703125 18.722656 99.871094 19.15625 100.03125 C 19.710938 100.238281 20.273438 100.4375 20.847656 100.632812 C 21.28125 100.78125 21.726562 100.929688 22.171875 101.085938 C 22.773438 101.285156 23.367188 101.492188 23.988281 101.691406 L 23.1875 101.769531 C 23.226562 102.125 27.023438 137.628906 39.652344 168.839844 L 40.394531 168.542969 L 41.125 168.25 C 39.453125 164.132812 37.953125 159.945312 36.589844 155.769531 C 36.570312 155.699219 36.550781 155.640625 36.527344 155.570312 C 35.511719 152.460938 34.574219 149.359375 33.710938 146.308594 C 33.691406 146.230469 33.671875 146.160156 33.652344 146.082031 C 32.566406 142.210938 31.597656 138.429688 30.738281 134.796875 C 30.726562 134.746094 30.707031 134.6875 30.699219 134.636719 C 30.53125 133.945312 30.371094 133.257812 30.222656 132.585938 C 30.203125 132.515625 30.195312 132.445312 30.175781 132.386719 C 29.53125 129.59375 28.960938 126.898438 28.457031 124.351562 C 28.4375 124.269531 28.425781 124.191406 28.40625 124.121094 C 28.289062 123.550781 28.179688 122.996094 28.070312 122.433594 C 28.039062 122.304688 28.019531 122.167969 27.992188 122.039062 C 27.890625 121.507812 27.785156 120.972656 27.683594 120.460938 C 27.664062 120.332031 27.636719 120.210938 27.617188 120.09375 C 27.308594 118.476562 27.042969 116.933594 26.785156 115.472656 C 26.765625 115.335938 26.734375 115.1875 26.714844 115.046875 C 26.648438 114.664062 26.585938 114.296875 26.527344 113.921875 C 26.488281 113.695312 26.449219 113.46875 26.417969 113.25 C 26.371094 112.925781 26.3125 112.601562 26.261719 112.285156 C 26.222656 112.039062 26.183594 111.789062 26.144531 111.554688 C 26.09375 111.265625 26.054688 110.980469 26.015625 110.714844 C 25.976562 110.449219 25.9375 110.199219 25.894531 109.953125 C 25.835938 109.558594 25.777344 109.183594 25.726562 108.808594 C 25.6875 108.511719 25.640625 108.226562 25.597656 107.949219 C 25.570312 107.753906 25.539062 107.574219 25.519531 107.375 C 25.480469 107.128906 25.453125 106.882812 25.421875 106.644531 C 25.402344 106.476562 25.371094 106.320312 25.351562 106.164062 C 25.324219 105.925781 25.285156 105.699219 25.253906 105.472656 C 25.234375 105.332031 25.214844 105.195312 25.195312 105.054688 C 25.164062 104.808594 25.136719 104.59375 25.105469 104.367188 C 25.09375 104.285156 25.085938 104.199219 25.074219 104.117188 C 25.035156 103.824219 25.007812 103.554688 24.976562 103.308594 C 24.96875 103.257812 24.96875 103.210938 24.957031 103.160156 C 24.9375 102.972656 24.917969 102.804688 24.898438 102.65625 C 24.886719 102.578125 24.878906 102.507812 24.867188 102.441406 C 24.859375 102.339844 24.847656 102.261719 24.839844 102.183594 C 24.828125 102.09375 24.820312 102.003906 24.808594 101.9375 L 24.820312 101.9375 C 26.332031 102.410156 27.910156 102.863281 29.542969 103.320312 C 29.621094 103.339844 29.699219 103.359375 29.78125 103.386719 C 32.242188 104.058594 34.847656 104.710938 37.566406 105.34375 C 37.683594 105.371094 37.804688 105.390625 37.914062 105.421875 C 40.667969 106.054688 43.546875 106.65625 46.539062 107.230469 C 70.464844 111.808594 101.820312 114.59375 136.179688 114.59375 C 178.179688 114.59375 215.722656 110.449219 240.644531 103.921875 C 244.417969 102.933594 247.886719 101.886719 251.058594 100.800781 C 250.277344 103.613281 249.28125 107.101562 248.105469 111.058594 C 241.265625 133.917969 228.121094 172.355469 213.65625 186.070312 L 214.199219 186.644531 L 214.742188 187.214844 C 215.445312 186.554688 216.136719 185.832031 216.828125 185.074219 C 230.683594 169.730469 242.789062 134.46875 249.378906 112.492188 C 250.839844 107.59375 252.039062 103.359375 252.90625 100.148438 C 260.554688 97.363281 266.167969 94.285156 269.261719 90.996094 C 270.171875 90.027344 270.871094 89.050781 271.335938 88.054688 C 271.335938 88.054688 271.335938 88.054688 271.335938 88.042969 C 271.542969 87.601562 271.691406 87.15625 271.8125 86.703125 C 271.820312 86.640625 271.859375 86.59375 271.871094 86.535156 C 271.988281 86.03125 272.046875 85.515625 272.046875 85.003906 C 272.046875 84.550781 271.988281 84.09375 271.890625 83.640625 Z M 221.609375 257.199219 L 221.835938 254.03125 C 210.800781 253.242188 203.527344 245.429688 198.574219 227.71875 C 196.441406 220.074219 194.730469 210.585938 193.335938 199.015625 C 193.230469 198.085938 193.121094 197.167969 193.011719 196.222656 C 188.585938 156.933594 155.570312 155.363281 155.242188 155.351562 L 155.132812 158.523438 C 156.378906 158.574219 185.738281 160.074219 189.859375 196.578125 C 190.015625 197.988281 190.183594 199.378906 190.351562 200.753906 C 191.699219 211.652344 193.386719 221.359375 195.757812 229.515625 C 200.5625 246.042969 208.210938 256.242188 221.609375 257.199219 Z M 131.023438 253.5 C 131.671875 253.585938 132.316406 253.675781 132.949219 253.753906 L 174.660156 209.105469 C 173.386719 209.71875 172.101562 210.320312 170.808594 210.902344 Z M 148.710938 308.683594 L 149.5 308.78125 C 149.511719 308.742188 149.511719 308.691406 149.511719 308.652344 C 152.386719 285.152344 143.925781 254 143.699219 253.171875 C 143.699219 253.164062 143.691406 253.144531 143.691406 253.144531 L 142.917969 253.359375 L 142.160156 253.566406 C 142.246094 253.882812 150.824219 285.183594 147.917969 308.59375 Z M 183.496094 312.917969 L 193.742188 333.632812 L 195.167969 332.933594 L 184.917969 312.21875 Z M 183.496094 312.917969 " fill-opacity="1" fill-rule="nonzero"/></g></svg>